<?xml version="1.0" encoding="UTF-8" standalone="no"?>
<!DOCTYPE svg  PUBLIC '-//W3C//DTD SVG 1.1//EN'  'http://www.w3.org/Graphics/SVG/1.1/DTD/svg11.dtd'>
<svg version="1.1" xmlns="http://www.w3.org/2000/svg">
<defs>
<font id="Acronis-Light" horiz-adv-x="550">
<font-face cap-height="700" font-family="Acronis" ascent="750" panose-1="2 11 2 4 2 0 0 2 0 4" descent="-250" units-per-em="1000" underline-position="-150" x-height="500" unicode-range="U+0020-FB00" bbox="-101 -254 3286 907" underline-thickness="50" font-weight="300"/>
<missing-glyph d="M331 700h29l311 -700h-34l-70 157h-445l-69 -157h-33zM200 332h290l-145 328zM136 187h418l-51 115h-316z" horiz-adv-x="681"/>
<glyph glyph-name=".notdef" d="M331 700h29l311 -700h-34l-70 157h-445l-69 -157h-33zM200 332h290l-145 328zM136 187h418l-51 115h-316z" horiz-adv-x="681"/>
<glyph glyph-name=".null" horiz-adv-x="0"/>
<glyph glyph-name="nonmarkingreturn" horiz-adv-x="333"/>
<glyph unicode=" " glyph-name="space" horiz-adv-x="256"/>
<glyph unicode="!" glyph-name="exclam" d="M81 700h30v-519h-30v519zM70 54h52v-54h-52v54z" horiz-adv-x="192"/>
<glyph unicode='&quot;' glyph-name="quotedbl" d="M30 700h30v-171h-30v171zM180 700h29v-171h-29v171z" horiz-adv-x="239"/>
<glyph unicode="#" glyph-name="numbersign" d="M384 210h-200l-57 -210h-32l57 210h-117v30h125l63 230h-117v30h126l55 200h31l-55 -200h201l55 200h31l-55 -200h120v-30h-128l-63 -230h120v-30h-128l-57 -210h-32zM192 240h200l63 230h-200z" horiz-adv-x="665"/>
<glyph unicode="$" glyph-name="dollar" d="M281 -5q-54 4 -93.5 24t-66 52.5t-39 74.5t-12.5 90h30q0 -59 17.5 -99t46 -65.5t65.5 -36.5t76 -11q50 0 83 14t53 36t28.5 48t8.5 50q0 28 -8.5 52t-29 44.5t-54.5 37.5t-85 32q-47 13 -85 30t-65 40.5t-42 54.5t-15 72q0 31 12 61.5t35.5 54.5t58.5 39.5t81 15.5v75 h30v-77q92 -8 136 -64.5t44 -149.5h-30q0 99 -46.5 142.5t-131.5 43.5q-36 0 -65.5 -11t-50 -30t-32 -44.5t-11.5 -55.5t9.5 -54t31 -44.5t57.5 -38t89 -32.5q55 -16 92.5 -35t60.5 -43t33.5 -53t10.5 -63q0 -38 -12.5 -70t-37.5 -55.5t-62 -37.5t-85 -15v-74h-30v75z" horiz-adv-x="578"/>
<glyph unicode="%" glyph-name="percent" d="M600 700h34l-412 -700h-35zM404 523q0 -41 -14 -74.5t-39 -57.5t-58 -37t-71 -13t-71 13t-58 37t-39 57.5t-14 74.5t14 74.5t39 57.5t58 37t71 13t71 -13t58 -37t39 -57.5t14 -74.5zM793 176q0 -41 -14 -74.5t-39 -57.5t-58 -37t-71 -13t-71 13t-58 37t-39 57.5t-14 74.5 t14 74.5t39 57.5t58 37t71 13t71 -13t58 -37t39 -57.5t14 -74.5zM374 523q0 34 -12 62t-32.5 48t-48 31t-59.5 11t-59.5 -11t-48 -31t-32.5 -48t-12 -62t12 -62t32.5 -48t48 -31t59.5 -11t59.5 11t48 31t32.5 48t12 62zM763 176q0 34 -12 62t-32.5 48t-48 31t-59.5 11 t-59.5 -11t-48 -31t-32.5 -48t-12 -62t12 -62t32.5 -48t48 -31t59.5 -11t59.5 11t48 31t32.5 48t12 62z" horiz-adv-x="833"/>
<glyph unicode="&amp;" glyph-name="ampersand" d="M569 0q-26 26 -51 50t-48 47q-34 -46 -84.5 -74.5t-122.5 -28.5q-51 0 -90.5 14.5t-66.5 39.5t-41.5 57t-14.5 68t11.5 65.5t31 54t45.5 45t54 38.5q-45 54 -66.5 96t-21.5 84q0 29 9.5 56t29 48t48.5 33.5t68 12.5t69 -12t50 -31t30 -44t10 -50q0 -36 -16 -63.5 t-41.5 -51t-58 -43.5t-65.5 -40q38 -42 95 -98.5t132 -130.5q24 43 35 92t11 97h30q0 -52 -13 -106.5t-42 -102.5q29 -29 59 -58t66 -64h-41zM263 24q65 0 111 26t75 68q-78 75 -136.5 132.5t-100.5 104.5q-27 -17 -51 -36t-42 -40.5t-28.5 -47.5t-10.5 -58q0 -31 12.5 -58 t35.5 -47.5t57 -32t78 -11.5zM134 556q0 -37 19.5 -74.5t64.5 -89.5q32 20 62.5 39t54.5 39.5t38.5 44.5t14.5 54q0 46 -34.5 76.5t-94.5 30.5q-30 0 -53.5 -9.5t-39.5 -26t-24 -38.5t-8 -46z" horiz-adv-x="630"/>
<glyph unicode="&apos;" glyph-name="quotesingle" d="M30 700h30v-171h-30v171z" horiz-adv-x="90"/>
<glyph unicode="(" glyph-name="parenleft" d="M50 225q0 88 22.5 163t61 134.5t90 104t110.5 73.5v-30q-57 -33 -104 -77.5t-80 -100.5t-51.5 -122.5t-18.5 -144.5h-30zM80 225q0 -78 18.5 -144.5t51.5 -122.5t80 -100.5t104 -77.5v-30q-59 28 -110.5 73t-90 104.5t-61 134t-22.5 163.5h30z" horiz-adv-x="349"/>
<glyph unicode=")" glyph-name="parenright" d="M269 225q0 78 -18.5 144.5t-51.5 122.5t-80 100.5t-104 77.5v30q58 -29 110 -73.5t90.5 -104t61 -134.5t22.5 -163q0 -89 -22.5 -163.5t-61 -134t-90.5 -104.5t-110 -73v30q57 33 104 77.5t80 100.5t51.5 122.5t18.5 144.5z" horiz-adv-x="349"/>
<glyph unicode="*" glyph-name="asterisk" d="M232 550l155 -87l-15 -26l-153 90l2 -177h-30l2 177l-153 -90l-15 26l154 87l-154 87l15 26l153 -90l-2 177h30l-2 -177l153 90l15 -26z" horiz-adv-x="412"/>
<glyph unicode="+" glyph-name="plus" d="M290 579v-201h200v-30h-200v-200h-30v200h-200v30h200v201h30z"/>
<glyph unicode="," glyph-name="comma" d="M30 54h52v-54l-32 -101h-20v155z" horiz-adv-x="97"/>
<glyph unicode="-" glyph-name="hyphen" d="M30 300h271v-30h-271v30z" horiz-adv-x="331"/>
<glyph unicode="." glyph-name="period" d="M30 54h52v-54h-52v54z" horiz-adv-x="97"/>
<glyph unicode="/" glyph-name="slash" d="M405 700h33l-419 -950h-34z" horiz-adv-x="408"/>
<glyph unicode="0" glyph-name="zero" d="M74 506q0 42 15.5 78.5t42.5 63.5t63.5 42.5t78.5 15.5t78.5 -15.5t63.5 -42.5t43 -63.5t16 -78.5v-312q0 -42 -16 -78.5t-43 -63.5t-63.5 -42.5t-78.5 -15.5t-78.5 15.5t-63.5 42.5t-42.5 63.5t-15.5 78.5v312zM104 194q0 -36 13.5 -67t36.5 -54t54 -36t66 -13t66 13 t54.5 36t37 54t13.5 67v312q0 36 -13.5 67t-37 54t-54.5 36t-66 13t-66 -13t-54 -36t-36.5 -54t-13.5 -67v-312z"/>
<glyph unicode="1" glyph-name="one" d="M269 659l-105 -97v39l105 99h30v-700h-30v659z"/>
<glyph unicode="2" glyph-name="two" d="M53 24q100 87 177.5 150t129.5 114.5t79 97t27 97.5q0 39 -15.5 73t-42.5 59.5t-64 40t-81 14.5q-40 0 -72.5 -12t-57 -32.5t-41.5 -47t-26 -55.5h-32q10 38 31 70.5t51 56t67.5 37t79.5 13.5q48 0 90.5 -16.5t74 -45.5t50 -68.5t18.5 -86.5q0 -52 -24 -98t-73 -97.5 t-123.5 -114.5t-176.5 -149h407v-30h-453v30z"/>
<glyph unicode="3" glyph-name="three" d="M408 670h-334v30h376v-30l-218 -209q8 1 15 1.5t15 0.5q50 0 93 -18.5t75 -50t50 -74t18 -91.5t-18.5 -91.5t-50.5 -74.5t-75 -50.5t-92 -18.5q-41 0 -78.5 13.5t-67.5 37t-51 56.5t-31 72h32q10 -35 29.5 -62.5t45 -46.5t56.5 -29.5t65 -10.5q43 0 80.5 16t65.5 43.5 t44 65t16 80.5t-16 80.5t-44 65t-65.5 43t-80.5 15.5q-17 0 -34 -2t-32 -5l-14 27z"/>
<glyph unicode="4" glyph-name="four" d="M401 184h-398v30l398 486h30v-486h111v-30h-111v-184h-30v184zM43 214h358v438z"/>
<glyph unicode="5" glyph-name="five" d="M97 392l38 308h298v-30h-271l-33 -254q26 18 62 32.5t80 14.5q50 0 93 -18.5t75 -50t50 -74t18 -91.5t-18.5 -91.5t-50.5 -74.5t-75 -50.5t-92 -18.5q-41 0 -78.5 13.5t-67.5 37t-51 56.5t-31 72h32q10 -35 29.5 -62.5t45 -46.5t56.5 -29.5t65 -10.5q43 0 80.5 16 t65.5 43.5t44 65t16 80.5t-16 80.5t-44 65t-65.5 43t-80.5 15.5q-48 0 -85.5 -17t-64.5 -43z"/>
<glyph unicode="6" glyph-name="six" d="M169 443q50 25 106 25q49 0 92 -18.5t75.5 -51t51 -75.5t18.5 -92t-18.5 -92t-51 -75.5t-75.5 -51t-92 -18.5t-92 18.5t-75.5 51t-51 75.5t-18.5 92q0 40 13 76.5t38 71.5l223 321h38zM69 231q0 -43 16 -80.5t44 -65.5t65.5 -44t80.5 -16t80.5 16t65.5 44t44 65.5 t16 80.5t-16 80.5t-44 65.5t-65.5 44t-80.5 16t-80.5 -16t-65.5 -44t-44 -65.5t-16 -80.5z"/>
<glyph unicode="7" glyph-name="seven" d="M65 700h416v-30l-297 -670h-33l297 670h-383v30z"/>
<glyph unicode="8" glyph-name="eight" d="M114 545q0 36 13 65.5t34.5 51t51 33t62.5 11.5q34 0 63.5 -11.5t51.5 -33t35 -51t13 -65.5q0 -49 -25 -85.5t-65 -53.5q63 -20 104 -70.5t41 -123.5q0 -46 -17 -86t-46.5 -69t-69.5 -46t-85 -17t-85 17t-69.5 46t-46.5 69t-17 86q0 73 40.5 123.5t104.5 70.5 q-39 18 -63.5 54t-24.5 85zM87 212q0 -40 14.5 -74t40 -59.5t60 -40t73.5 -14.5t73 14.5t59.5 40t40.5 59.5t15 74q0 39 -15 72t-40.5 56.5t-59.5 36.5t-73 13t-73.5 -13t-60 -36.5t-40 -56.5t-14.5 -72zM144 545q0 -28 10.5 -51.5t28.5 -40.5t41.5 -26.5t50.5 -9.5 q28 0 52.5 9.5t42.5 27t28 41t10 50.5q0 29 -10.5 53.5t-28.5 42t-42.5 27t-51.5 9.5t-50.5 -9.5t-41.5 -27t-28.5 -42t-10.5 -53.5z"/>
<glyph unicode="9" glyph-name="nine" d="M380 256q-47 -24 -105 -24q-49 0 -92 18.5t-75.5 51t-51 75.5t-18.5 92t18.5 92t51 75.5t75.5 51t92 18.5t92 -18.5t75.5 -51t51 -75.5t18.5 -92q0 -42 -14 -78t-38 -71l-222 -320h-38zM481 469q0 43 -16 80.5t-44 65.5t-65.5 44t-80.5 16t-80.5 -16t-65.5 -44t-44 -65.5 t-16 -80.5t16 -80.5t44 -65.5t65.5 -44t80.5 -16t80.5 16t65.5 44t44 65.5t16 80.5z"/>
<glyph unicode=":" glyph-name="colon" d="M30 500h52v-54h-52v54zM30 54h52v-54h-52v54z" horiz-adv-x="97"/>
<glyph unicode=";" glyph-name="semicolon" d="M30 54h52v-54l-32 -101h-20v155zM30 500h52v-54h-52v54z" horiz-adv-x="97"/>
<glyph unicode="&lt;" glyph-name="less" d="M30 295l302 223v-39l-270 -198l270 -200v-39l-302 225v28z" horiz-adv-x="362"/>
<glyph unicode="=" glyph-name="equal" d="M70 280h411v-30h-411v30zM70 438h411v-30h-411v30z" horiz-adv-x="551"/>
<glyph unicode="&gt;" glyph-name="greater" d="M332 267l-302 -225v39l270 200l-270 198v39l302 -223v-28z" horiz-adv-x="362"/>
<glyph unicode="?" glyph-name="question" d="M229 181q-2 49 12.5 81.5t38 56t51 42t52 39t40.5 47.5t16 67q0 32 -13 61.5t-37 52t-58.5 35.5t-77.5 13q-90 0 -144 -47.5t-54 -138.5h-30q0 49 15.5 89t45 68.5t72 43.5t95.5 15q50 0 90 -15.5t68 -42t43 -61t15 -73.5q0 -46 -16 -75.5t-40 -51.5t-51.5 -39.5 t-51 -39.5t-38.5 -52t-13 -75h-30zM217 54h52v-54h-52v54z" horiz-adv-x="489"/>
<glyph unicode="@" glyph-name="at" d="M746 30q37 1 76 16t71 45.5t52.5 77.5t20.5 112q0 87 -32.5 159.5t-92.5 125t-144 81.5t-187 29q-96 0 -177.5 -34t-141 -93.5t-93 -139.5t-33.5 -172q0 -93 33 -173t92 -139t140.5 -92.5t179.5 -33.5q38 0 73.5 3.5t69.5 14.5v-28q-69 -20 -143 -20q-105 0 -192.5 36.5 t-150.5 99.5t-97.5 148.5t-34.5 183.5t36 183.5t100 149t150.5 100t188.5 36.5q109 0 199 -31.5t153.5 -88t98.5 -134.5t35 -171q0 -71 -23 -123.5t-59 -87.5t-80.5 -52.5t-87.5 -17.5h-28l-2 88v37q-29 -60 -84 -95.5t-130 -35.5q-54 0 -101 19.5t-81.5 54t-54 81.5 t-19.5 101t19.5 101t54 81.5t81.5 54t101 19.5q75 0 130 -35.5t84 -96.5v40l2 86h28v-470zM502 476q-50 0 -91.5 -17t-71.5 -47.5t-46.5 -72t-16.5 -89.5t17 -89.5t47 -72t71.5 -47.5t90.5 -17t88.5 16.5t68 45t44 68t15.5 85.5q0 55 -15.5 99t-44 74.5t-68.5 47t-88 16.5z " horiz-adv-x="1031"/>
<glyph unicode="A" glyph-name="A" d="M331 700h29l311 -700h-34l-89 200h-407l-88 -200h-33zM155 230h380l-190 430z" horiz-adv-x="681"/>
<glyph unicode="B" glyph-name="B" d="M80 0v700h130q112 0 172 -39t60 -127q0 -108 -105 -146q37 -8 68.5 -24t54 -40t35.5 -55.5t13 -69.5q0 -52 -17.5 -89.5t-49 -62t-76 -36t-99.5 -11.5h-186zM266 30q104 0 158 44t54 125q0 36 -15 66.5t-42.5 53.5t-66.5 36t-88 13h-156v-338h156zM110 670v-272h100 q108 0 155 36t47 100q0 69 -48 102.5t-154 33.5h-100z" horiz-adv-x="553"/>
<glyph unicode="C" glyph-name="C" d="M699 473q-17 45 -45 82.5t-65.5 64.5t-83.5 41.5t-99 14.5q-69 0 -129 -25t-103.5 -68.5t-68.5 -103.5t-25 -129t25 -129t68.5 -103.5t103.5 -68.5t129 -25q52 0 98.5 14.5t84 41t65.5 63.5t45 82l31 -1q-17 -51 -47.5 -93.5t-72.5 -73t-93.5 -47t-110.5 -16.5 q-76 0 -141 27t-113 75t-75 113t-27 141t27 141t75 113t113 75t141 27q59 0 111 -17t94 -47.5t72.5 -73t47.5 -94.5z" horiz-adv-x="771"/>
<glyph unicode="D" glyph-name="D" d="M80 700h208q76 0 141 -26.5t113 -73t75 -110.5t27 -140t-27 -140t-75 -110.5t-113 -73t-141 -26.5h-208v700zM110 670v-640h178q69 0 129 24t103.5 66.5t68.5 101.5t25 128t-25 128t-68.5 101.5t-103.5 66.5t-129 24h-178z" horiz-adv-x="684"/>
<glyph unicode="E" glyph-name="E" d="M80 700h374v-30h-344v-296h294v-30h-294v-314h344v-30h-374v700z" horiz-adv-x="499"/>
<glyph unicode="F" glyph-name="F" d="M80 700h374v-30h-344v-296h294v-30h-294v-344h-30v700z" horiz-adv-x="494"/>
<glyph unicode="G" glyph-name="G" d="M346 320h393q-4 -76 -31 -136.5t-71.5 -102.5t-103.5 -64.5t-127 -22.5q-76 0 -141 27t-113 75t-75 113t-27 141t27 141t75 113t113 75t141 27q59 0 111 -17t94 -47.5t72.5 -73t47.5 -94.5l-32 -1q-17 45 -45 82.5t-65.5 64.5t-83.5 41.5t-99 14.5q-69 0 -129 -25 t-103.5 -68.5t-68.5 -103.5t-25 -129t25 -129t68.5 -103.5t103.5 -68.5t129 -25q58 0 109.5 18.5t91 53t65 83.5t33.5 111h-359v30z" horiz-adv-x="779"/>
<glyph unicode="H" glyph-name="H" d="M647 344h-537v-344h-30v700h30v-326h537v326h30v-700h-30v344z" horiz-adv-x="747"/>
<glyph unicode="I" glyph-name="I" d="M90 700h30v-700h-30v700z" horiz-adv-x="200"/>
<glyph unicode="J" glyph-name="J" d="M358 700h30v-517q0 -87 -48 -138t-131 -51q-41 0 -75 13.5t-58 38t-37.5 59.5t-13.5 78h30q1 -44 14.5 -74t35 -49t49 -27.5t56.5 -8.5q28 0 54.5 9t47.5 28t33.5 49t12.5 73v517z" horiz-adv-x="458"/>
<glyph unicode="K" glyph-name="K" d="M80 700h30v-700h-30v700zM159 357l343 -357h-42l-341 357l306 343h39z" horiz-adv-x="517"/>
<glyph unicode="L" glyph-name="L" d="M80 700h30v-670h334v-30h-364v700z" horiz-adv-x="464"/>
<glyph unicode="M" glyph-name="M" d="M750 0h-30v648l-290 -410h-30l-290 409v-647h-30v700h30l305 -431l305 431h30v-700z" horiz-adv-x="820"/>
<glyph unicode="N" glyph-name="N" d="M657 700v-700h-30l-517 649v-649h-30v700h30l517 -653v653h30z" horiz-adv-x="727"/>
<glyph unicode="O" glyph-name="O" d="M50 350q0 76 27 141t75 113t113 75t141 27t141 -27t113 -75t75 -113t27 -141t-27 -141t-75 -113t-113 -75t-141 -27t-141 27t-113 75t-75 113t-27 141zM80 350q0 -69 25 -129t68.5 -103.5t103.5 -68.5t129 -25t129 25t103.5 68.5t68.5 103.5t25 129t-25 129t-68.5 103.5 t-103.5 68.5t-129 25t-129 -25t-103.5 -68.5t-68.5 -103.5t-25 -129z" horiz-adv-x="802"/>
<glyph unicode="P" glyph-name="P" d="M80 700h156q53 0 97.5 -12.5t76.5 -37t50 -62t18 -87.5t-18 -87.5t-50 -62t-76.5 -37t-97.5 -12.5h-126v-302h-30v700zM110 671v-339h126q96 0 154 41.5t58 127.5q0 43 -15.5 75t-43 53t-66.5 31t-87 10z" horiz-adv-x="508"/>
<glyph unicode="Q" glyph-name="Q" d="M50 350q0 76 27 141t75 113t113 75t141 27t141 -27t113 -75t75 -113t27 -141q0 -100 -45 -179t-121 -125l68 -117l-26 -16l-69 118q-74 -37 -163 -37q-76 0 -141 27t-113 75t-75 113t-27 141zM80 350q0 -69 25 -129t68.5 -103.5t103.5 -68.5t129 -25q41 0 78 8.5t70 24.5 l-60 104l26 16l61 -105q69 42 110 114.5t41 163.5q0 69 -25 129t-68.5 103.5t-103.5 68.5t-129 25t-129 -25t-103.5 -68.5t-68.5 -103.5t-25 -129z" horiz-adv-x="802"/>
<glyph unicode="R" glyph-name="R" d="M80 700h156q53 0 97.5 -12.5t76.5 -37t50 -62t18 -87.5q0 -80 -44 -127.5t-118 -63.5l201 -310h-35l-198 305q-23 -3 -48 -3h-126v-302h-30v700zM110 671v-339h126q96 0 154 41.5t58 127.5q0 43 -15.5 75t-43 53t-66.5 31t-87 10z" horiz-adv-x="552"/>
<glyph unicode="S" glyph-name="S" d="M306 366q55 -16 92.5 -35t60.5 -43t33.5 -53t10.5 -63q0 -38 -13 -70.5t-38.5 -56.5t-63.5 -37.5t-88 -13.5q-60 0 -104 19t-73.5 52t-43.5 77t-14 94h30q0 -59 17.5 -99t46 -65.5t65.5 -36.5t76 -11q50 0 83 14t53 36t28.5 48t8.5 50q0 28 -8.5 52t-29 44.5t-54.5 37.5 t-85 32q-47 13 -85 30t-65 40.5t-42 54.5t-15 72q0 31 12 62t36 55t59 39t82 15q106 0 157 -58.5t51 -157.5h-30q0 99 -46.5 142.5t-131.5 43.5q-36 0 -65.5 -11t-50 -30t-32 -44.5t-11.5 -55.5t9.5 -54t31 -44.5t57.5 -38t89 -32.5z" horiz-adv-x="558"/>
<glyph unicode="T" glyph-name="T" d="M15 700h488v-30h-229v-670h-30v670h-229v30z" horiz-adv-x="508"/>
<glyph unicode="U" glyph-name="U" d="M80 700h30v-428q0 -51 14 -96.5t41.5 -79t67 -53t90.5 -19.5t91 19.5t67 53t41.5 79t14.5 96.5v428h30v-428q0 -59 -16 -110t-46.5 -88.5t-76 -58.5t-105.5 -21q-59 0 -104.5 21t-76.5 58.5t-46.5 88.5t-15.5 110v428z" horiz-adv-x="637"/>
<glyph unicode="V" glyph-name="V" d="M365 0h-29l-311 700h33l292 -660l292 660h34z" horiz-adv-x="691"/>
<glyph unicode="W" glyph-name="W" d="M714 0h-32l-212 653l-212 -653h-32l-196 700h31l181 -647l213 647h30l212 -649l182 649h31z" horiz-adv-x="930"/>
<glyph unicode="X" glyph-name="X" d="M303 384l212 316h35l-227 -341l247 -359h-37l-230 335l-231 -335h-37l247 359l-227 341h35z" horiz-adv-x="595"/>
<glyph unicode="Y" glyph-name="Y" d="M316 309v-309h-30v310l-266 390h36l245 -358l245 358h36z" horiz-adv-x="592"/>
<glyph unicode="Z" glyph-name="Z" d="M80 700h414v-30l-398 -640h398v-30h-434v30l398 640h-378v30z" horiz-adv-x="544"/>
<glyph unicode="[" glyph-name="bracketleft" d="M70 700h159v-30h-129v-890h129v-30h-159v950z" horiz-adv-x="259"/>
<glyph unicode="\" glyph-name="backslash" d="M423 -250h-34l-419 950h33z" horiz-adv-x="408"/>
<glyph unicode="]" glyph-name="bracketright" d="M189 -250h-159v30h129v890h-129v30h159v-950z" horiz-adv-x="259"/>
<glyph unicode="_" glyph-name="underscore" d="M0 -220h361v-30h-361v30z" horiz-adv-x="361"/>
<glyph unicode="`" glyph-name="grave" d="M212 617l-21 -15l-189 151v9l31 6z" horiz-adv-x="212"/>
<glyph unicode="a" glyph-name="a" d="M91 476q31 14 69 22t73 8q85 0 132 -44t47 -138v-324h-25l-5 55q-21 -23 -61.5 -42t-94.5 -19q-40 0 -73.5 11t-57.5 32t-37 50.5t-13 65.5t14 65.5t38.5 50.5t57.5 32t71 11q47 0 88.5 -12.5t67.5 -28.5v53q0 46 -12.5 76t-33 47t-47.5 23.5t-56 6.5q-35 0 -71.5 -8 t-70.5 -25v32zM226 282q-68 0 -108 -36t-40 -93q0 -58 38 -93.5t110 -35.5q59 0 96 20.5t60 49.5v143q-33 21 -69 33t-87 12z" horiz-adv-x="482"/>
<glyph unicode="b" glyph-name="b" d="M70 700h30v-327q29 61 86.5 97t138.5 36q54 0 99.5 -19.5t78.5 -54t51.5 -81.5t18.5 -101t-18.5 -101t-51.5 -81.5t-78.5 -54t-99.5 -19.5q-81 0 -138.5 35.5t-86.5 96.5v-18l-5 -108h-25v700zM325 24q47 0 87 17t69 47t45.5 71.5t16.5 90.5t-16 90.5t-45 71.5t-69 47 t-88 17t-89 -16t-71 -45.5t-47.5 -71t-17.5 -93.5t17.5 -94t47.5 -71t71 -45t89 -16z" horiz-adv-x="608"/>
<glyph unicode="c" glyph-name="c" d="M532 182q-9 -41 -29.5 -75.5t-51.5 -59.5t-71.5 -39t-88.5 -14q-54 0 -101 19.5t-81.5 54t-54 81.5t-19.5 101t19.5 101t54 81.5t81.5 54t101 19.5q47 0 87 -13t70.5 -37t51.5 -57t30 -73h-32q-18 68 -72 109t-135 41q-49 0 -90.5 -17.5t-71.5 -47.5t-47 -71.5t-17 -89.5 t17 -89.5t47 -71.5t71.5 -47.5t90.5 -17.5q85 0 139 44.5t71 113.5h31z" horiz-adv-x="567"/>
<glyph unicode="d" glyph-name="d" d="M538 0h-25l-5 108v18q-29 -61 -86.5 -96.5t-138.5 -35.5q-54 0 -99.5 19.5t-78.5 54t-51.5 81.5t-18.5 101t18.5 101t51.5 81.5t78.5 54t99.5 19.5q81 0 138.5 -36t86.5 -97v327h30v-700zM283 476q-48 0 -88 -17t-69 -47t-45 -71.5t-16 -90.5t16.5 -90.5t45.5 -71.5 t69 -47t87 -17t88 16t71.5 45t48 71t17.5 94t-17.5 93.5t-48 71t-71.5 45.5t-88 16z" horiz-adv-x="608"/>
<glyph unicode="e" glyph-name="e" d="M530 182q-9 -41 -29 -75.5t-50.5 -59.5t-70 -39t-86.5 -14q-59 0 -107 19.5t-82 53.5t-52 81t-18 102q0 51 18 97.5t52 82t82 56t107 20.5q49 0 93.5 -16t77.5 -49t52.5 -82t18.5 -115h-471q1 -51 18 -91.5t47 -69t71.5 -44t92.5 -15.5q45 0 79.5 12t60 33t42 50t25.5 63 h29zM294 476q-48 0 -88 -15.5t-70 -42.5t-48 -64t-22 -80h437q-2 46 -17 83.5t-42 63.5t-65 40.5t-85 14.5z" horiz-adv-x="572"/>
<glyph unicode="f" glyph-name="f" d="M255 657q-20 8 -39.5 13.5t-39.5 5.5q-19 0 -31.5 -15.5t-12.5 -63.5v-97h123v-30h-123v-470h-30v470h-72v30h72v97q0 57 18.5 83t55.5 26q21 0 40.5 -5t38.5 -13v-31z" horiz-adv-x="275"/>
<glyph unicode="g" glyph-name="g" d="M538 4q0 -122 -62.5 -190t-182.5 -68q-58 0 -102 16t-74.5 45.5t-46.5 70t-19 89.5h31q6 -89 58 -140t153 -51q100 0 157.5 55t57.5 173v122q-29 -61 -86.5 -96.5t-138.5 -35.5q-54 0 -99.5 19.5t-78.5 54t-51.5 81.5t-18.5 101t18.5 101t51.5 81.5t78.5 54t99.5 19.5 q81 0 138.5 -36t86.5 -97v47l5 80h25v-496zM508 250q0 50 -17 91.5t-47 71.5t-71 46.5t-90 16.5q-48 0 -88 -17t-69 -47t-45 -71.5t-16 -90.5t16.5 -90.5t45.5 -71.5t69 -47t87 -17t88 16t71.5 45t48 71t17.5 94z" horiz-adv-x="608"/>
<glyph unicode="h" glyph-name="h" d="M70 700h30v-288q26 48 74 71t99 23q42 0 79 -11t64.5 -35.5t43.5 -63.5t16 -94v-302h-30v296q0 50 -13.5 84.5t-36.5 55.5t-54.5 30.5t-68.5 9.5q-29 0 -59.5 -9t-55 -29t-41 -51.5t-17.5 -75.5v-311h-30v700z" horiz-adv-x="546"/>
<glyph unicode="i" glyph-name="i" d="M88 500h30v-500h-30v500zM85 700h36v-37h-36v37z" horiz-adv-x="206"/>
<glyph unicode="j" glyph-name="j" d="M88 500h30v-750h-30v750zM85 700h36v-37h-36v37z" horiz-adv-x="206"/>
<glyph unicode="k" glyph-name="k" d="M70 700h31v-700h-31v700zM402 500l-248 -242l266 -258h-43l-266 257l248 243h43z" horiz-adv-x="430"/>
<glyph unicode="l" glyph-name="l" d="M70 700h29v-700h-29v700z" horiz-adv-x="169"/>
<glyph unicode="m" glyph-name="m" d="M70 500h25l4 -83q23 45 62.5 67t84.5 22q122 0 153 -114q20 58 63 86t94 28q81 0 122.5 -50t41.5 -154v-302h-30v296q0 93 -31.5 136.5t-102.5 43.5q-27 0 -53.5 -9.5t-47 -30.5t-33 -54t-12.5 -80v-302h-30v296q0 93 -31.5 136.5t-102.5 43.5q-27 0 -53.5 -9.5 t-47 -30.5t-33 -54t-12.5 -80v-302h-30v500z" horiz-adv-x="790"/>
<glyph unicode="n" glyph-name="n" d="M70 500h25l5 -87v-1q26 48 74 71t99 23q42 0 79 -11t64.5 -35.5t43.5 -63.5t16 -94v-302h-30v296q0 50 -13.5 84.5t-36.5 55.5t-54.5 30.5t-68.5 9.5q-29 0 -59.5 -9t-55 -29t-41 -51.5t-17.5 -75.5v-311h-30v500z" horiz-adv-x="546"/>
<glyph unicode="o" glyph-name="o" d="M35 250q0 54 19.5 101t54 81.5t81.5 54t101 19.5t101 -19.5t81.5 -54t54 -81.5t19.5 -101t-19.5 -101t-54 -81.5t-81.5 -54t-101 -19.5t-101 19.5t-81.5 54t-54 81.5t-19.5 101zM65 250q0 -48 17.5 -89.5t47.5 -71.5t71.5 -47.5t89.5 -17.5t89.5 17.5t71.5 47.5 t47.5 71.5t17.5 89.5t-17.5 89.5t-47.5 71.5t-71.5 47.5t-89.5 17.5t-89.5 -17.5t-71.5 -47.5t-47.5 -71.5t-17.5 -89.5z" horiz-adv-x="582"/>
<glyph unicode="p" glyph-name="p" d="M70 500h25l5 -80v-47q29 61 86.5 97t138.5 36q54 0 99.5 -19.5t78.5 -54t51.5 -81.5t18.5 -101t-18.5 -101t-51.5 -81.5t-78.5 -54t-99.5 -19.5q-81 0 -138.5 35.5t-86.5 96.5v-376h-30v750zM100 250q0 -50 17 -91.5t47 -71.5t71 -46.5t90 -16.5q47 0 87 17t69 47 t45.5 71.5t16.5 90.5t-16 90.5t-45 71.5t-69 47t-88 17q-49 0 -90 -16.5t-71 -46.5t-47 -71.5t-17 -91.5z" horiz-adv-x="608"/>
<glyph unicode="q" glyph-name="q" d="M538 -250h-30v376q-29 -61 -86.5 -96.5t-138.5 -35.5q-54 0 -99.5 19.5t-78.5 54t-51.5 81.5t-18.5 101t18.5 101t51.5 81.5t78.5 54t99.5 19.5q81 0 138.5 -36t86.5 -97v47l5 80h25v-750zM508 250q0 50 -17 91.5t-47 71.5t-71 46.5t-90 16.5q-48 0 -88 -17t-69 -47 t-45 -71.5t-16 -90.5t16.5 -90.5t45.5 -71.5t69 -47t87 -17q49 0 90 16.5t71 46.5t47 71.5t17 91.5z" horiz-adv-x="608"/>
<glyph unicode="r" glyph-name="r" d="M70 500h25l4 -91q14 25 34.5 43t45.5 30t51.5 18t52.5 6v-30q-29 0 -60.5 -9t-58 -29t-44.5 -51.5t-20 -75.5v-311h-30v500z" horiz-adv-x="303"/>
<glyph unicode="s" glyph-name="s" d="M217 267q71 -24 106 -57.5t35 -87.5q0 -58 -38 -93t-104 -35q-43 0 -75 12.5t-53.5 34t-32 51.5t-10.5 66h30q2 -61 35 -97.5t106 -36.5q32 0 53.5 9t34.5 23t18.5 31.5t5.5 34.5q0 42 -30.5 69.5t-90.5 47.5q-66 21 -106 54t-40 91q0 53 37.5 87.5t105.5 34.5 q37 0 63.5 -12.5t43 -32.5t24 -46t7.5 -54h-30q0 54 -26 84.5t-84 30.5q-48 0 -79.5 -23.5t-31.5 -68.5q0 -43 30 -68.5t96 -48.5z" horiz-adv-x="408"/>
<glyph unicode="t" glyph-name="t" d="M30 500h72v110h30v-110h123v-30h-123v-470h-30v470h-72v30z" horiz-adv-x="275"/>
<glyph unicode="u" glyph-name="u" d="M477 203q0 -95 -51.5 -152t-152.5 -57t-152 57t-50 152v297h30v-285q0 -100 45.5 -145.5t126.5 -45.5t126.5 43t47.5 138v295h30v-297z" horiz-adv-x="547"/>
<glyph unicode="v" glyph-name="v" d="M247 0l-232 500h34l213 -462l214 462h34l-232 -500h-31z" horiz-adv-x="525"/>
<glyph unicode="w" glyph-name="w" d="M571 0h-31l-162 455l-160 -455h-31l-172 500h33l154 -454l160 454h32l161 -454l153 454h33z" horiz-adv-x="756"/>
<glyph unicode="x" glyph-name="x" d="M417 500l-166 -236l186 -264h-37l-169 242l-169 -242h-37l186 264l-166 236h37l149 -215l149 215h37z" horiz-adv-x="462"/>
<glyph unicode="y" glyph-name="y" d="M48 500l200 -474l219 474h32l-346 -750h-33l111 241l-216 509h33z" horiz-adv-x="514"/>
<glyph unicode="z" glyph-name="z" d="M45 500h341v-30l-296 -440h306v-30h-341v30l295 440h-305v30z" horiz-adv-x="441"/>
<glyph unicode="{" glyph-name="braceleft" d="M120 568q0 39 11.5 64t32 40t49.5 20.5t64 5.5h17v-30h-17q-64 0 -95.5 -21t-31.5 -79v-224q0 -51 -15.5 -78t-47.5 -42q32 -15 47.5 -42t15.5 -78v-224q0 -29 8 -48.5t23.5 -31t39.5 -16t56 -4.5h17v-30h-17q-35 0 -64 5.5t-49.5 20.5t-32 40t-11.5 64v224 q0 34 -9.5 54.5t-24 32t-32 15t-34.5 3.5v30q17 0 34.5 3.5t32 15t24 32t9.5 54.5v224z" horiz-adv-x="324"/>
<glyph unicode="|" glyph-name="bar" d="M85 700h30v-700h-30v700z" horiz-adv-x="200"/>
<glyph unicode="}" glyph-name="braceright" d="M204 344q0 -34 9.5 -54.5t24 -32t32 -15t34.5 -3.5v-30q-17 0 -34.5 -3.5t-32 -15t-24 -32t-9.5 -54.5v-224q0 -39 -11.5 -64t-32 -40t-49.5 -20.5t-64 -5.5h-17v30h17q32 0 56 4.5t39.5 16t23.5 31t8 48.5v224q0 51 15.5 78t47.5 42q-32 15 -47.5 42t-15.5 78v224 q0 58 -31.5 79t-95.5 21h-17v30h17q35 0 64 -5.5t49.5 -20.5t32 -40t11.5 -64v-224z" horiz-adv-x="324"/>
<glyph unicode="¢" glyph-name="cent" d="M532 247q-9 -41 -29.5 -75.5t-51.5 -59.5t-71.5 -39t-88.5 -14q-54 0 -101 19.5t-81.5 54t-54 81.5t-19.5 101t19.5 101t54 81.5t81.5 54t101 19.5q47 0 87 -13t70.5 -37t51.5 -57t30 -73h-32q-18 68 -72 109t-135 41q-49 0 -90.5 -17.5t-71.5 -47.5t-47 -71.5t-17 -89.5 t17 -89.5t47 -71.5t71.5 -47.5t90.5 -17.5q85 0 139 44.5t71 113.5h31zM275 667h30v-118h-30v118zM276 80h30v-117h-30v117z" horiz-adv-x="567"/>
<glyph unicode="£" glyph-name="sterling" d="M59 329h301v-30h-301v30zM455 596l-12.5 12.5t-34.5 27.5t-53.5 27.5t-70.5 12.5t-71 -12.5t-54.5 -35t-35 -54.5t-12.5 -71q0 -37 12 -69.5t26 -64t26 -65.5t12 -74q0 -36 -9 -65.5t-22 -51.5t-27.5 -36.5t-24.5 -21.5l-32 -10q9 8 23.5 24t27.5 39.5t22.5 54t9.5 67.5 t-12 69.5t-26 64t-26 65.5t-12 74q0 46 15 83.5t42 64t64.5 41t83.5 14.5q45 0 80 -13.5t59 -29.5t37 -29.5l13 -13.5zM28 17q0 1 8 10.5t24 20.5t39.5 20t55.5 9q31 0 60.5 -8t58.5 -18t57 -18t57 -8q25 0 45 7.5t34.5 17t23 17.5t10.5 10l13 -23q0 -1 -8 -10.5t-24 -20.5 t-39.5 -20t-55.5 -9q-31 0 -60.5 8t-58.5 18t-57.5 18t-56.5 8q-25 0 -45 -7.5t-34.5 -17t-23.5 -18t-10 -9.5z" horiz-adv-x="481"/>
<glyph unicode="¥" glyph-name="yen" d="M316 309v-309h-30v310l-266 390h36l245 -358l245 358h36zM108 195h386v-30h-386v30zM108 339h386v-30h-386v30z" horiz-adv-x="592"/>
<glyph unicode="¨" glyph-name="dieresis" d="M109 637h36v-37h-36v37zM349 637h36v-37h-36v37z" horiz-adv-x="508"/>
<glyph unicode="©" glyph-name="copyright" d="M35 350q0 76 27 141t75 113t113 75t141 27t141 -27t113 -75t75 -113t27 -141t-27 -141t-75 -113t-113 -75t-141 -27t-141 27t-113 75t-75 113t-27 141zM100 350q0 -63 21.5 -116.5t60.5 -93.5t92.5 -62.5t116.5 -22.5t116.5 22.5t92.5 62.5t60.5 93.5t21.5 116.5 t-21.5 116.5t-60.5 93.5t-92.5 62.5t-116.5 22.5t-116.5 -22.5t-92.5 -62.5t-60.5 -93.5t-21.5 -116.5zM588 296q-14 -66 -64 -107.5t-127 -41.5q-43 0 -80 15.5t-64.5 43t-43 64.5t-15.5 80t15.5 80t43 64.5t64.5 43t80 15.5q75 0 125 -40t64 -103h-64q-12 39 -43 62.5 t-82 23.5q-31 0 -57 -11t-44.5 -30.5t-29 -46.5t-10.5 -58t10.5 -58t29 -46.5t44.5 -30.5t57 -11q53 0 84.5 25t42.5 66z" horiz-adv-x="782"/>
<glyph unicode="«" glyph-name="guillemotleft" d="M30 295l302 223v-39l-270 -198l270 -200v-39l-302 225v28zM230 295l302 223v-39l-270 -198l270 -200v-39l-302 225v28z" horiz-adv-x="562"/>
<glyph unicode="®" glyph-name="registered" d="M35 350q0 76 27 141t75 113t113 75t141 27t141 -27t113 -75t75 -113t27 -141t-27 -141t-75 -113t-113 -75t-141 -27t-141 27t-113 75t-75 113t-27 141zM100 350q0 -63 21.5 -116.5t60.5 -93.5t92.5 -62.5t116.5 -22.5t116.5 22.5t92.5 62.5t60.5 93.5t21.5 116.5 t-21.5 116.5t-60.5 93.5t-92.5 62.5t-116.5 22.5t-116.5 -22.5t-92.5 -62.5t-60.5 -93.5t-21.5 -116.5zM248 549h167q61 0 98.5 -32.5t37.5 -89.5q0 -43 -23 -72t-60 -42l96 -157h-68l-89 149h-99v-149h-60v393zM308 492v-130h107q34 0 55 16.5t21 48.5q0 35 -21.5 50 t-54.5 15h-107z" horiz-adv-x="782"/>
<glyph unicode="°" glyph-name="degree" d="M20 575q0 27 10 51t28 41.5t41.5 28t50.5 10.5t51 -10.5t41.5 -28t28 -41.5t10.5 -51t-10.5 -50.5t-28 -41.5t-41.5 -28t-51 -10t-50.5 10t-41.5 28t-28 41.5t-10 50.5zM50 575q0 -42 29 -71t71 -29q21 0 39 8t32 21.5t22 31.5t8 39t-8 39t-22 32t-32 22t-39 8t-39 -8 t-31.5 -22t-21.5 -32t-8 -39z" horiz-adv-x="301"/>
<glyph unicode="±" glyph-name="plusminus" d="M290 579v-201h200v-30h-200v-170h-30v170h-200v30h200v201h30zM60 148h430v-30h-430v30z"/>
<glyph unicode="´" glyph-name="acute" d="M181 768l31 -6v-9l-189 -151l-21 15z" horiz-adv-x="225"/>
<glyph unicode="¸" glyph-name="cedilla" d="M143 25l-25 -66q38 -8 61.5 -30t23.5 -58t-26 -57.5t-62 -21.5q-32 0 -59 16t-37 29l16 24q3 -5 11 -11.5t19 -13t24 -11t26 -4.5q24 0 41 13t17 37t-22 43.5t-70 23.5l31 87h31z" horiz-adv-x="236"/>
<glyph unicode="»" glyph-name="guillemotright" d="M532 267l-302 -225v39l270 200l-270 198v39l302 -223v-28zM332 267l-302 -225v39l270 200l-270 198v39l302 -223v-28z" horiz-adv-x="562"/>
<glyph unicode="À" glyph-name="Agrave" d="M331 700h29l311 -700h-34l-89 200h-407l-88 -200h-33zM155 230h380l-190 430zM356 751l-21 -15l-189 151v9l31 6z" horiz-adv-x="681"/>
<glyph unicode="Á" glyph-name="Aacute" d="M331 700h29l311 -700h-34l-89 200h-407l-88 -200h-33zM155 230h380l-190 430zM510 902l31 -6v-9l-189 -151l-21 15z" horiz-adv-x="681"/>
<glyph unicode="Â" glyph-name="Acircumflex" d="M331 700h29l311 -700h-34l-89 200h-407l-88 -200h-33zM155 230h380l-190 430zM353 882l135 -157h-33l-111 124l-111 -124h-33l135 157h18z" horiz-adv-x="681"/>
<glyph unicode="Ã" glyph-name="Atilde" d="M331 700h29l311 -700h-34l-89 200h-407l-88 -200h-33zM155 230h380l-190 430zM274 825q-13 0 -24 -5.5t-19.5 -14.5t-15 -19.5t-10.5 -20.5l-20 15q3 9 10 21.5t17.5 24t26 19.5t35.5 8q22 0 40.5 -10t36 -22.5t33.5 -22.5t34 -10q13 0 24 5.5t19.5 14.5t14.5 19.5 t11 20.5l20 -15q-3 -9 -10 -21.5t-17.5 -24t-26 -19.5t-35.5 -8q-22 0 -40.5 10t-36 22.5t-33.5 22.5t-34 10z" horiz-adv-x="681"/>
<glyph unicode="Ä" glyph-name="Adieresis" d="M187 822h36v-37h-36v37zM467 822h36v-37h-36v37zM331 700h29l311 -700h-34l-89 200h-407l-88 -200h-33zM155 230h380l-190 430z" horiz-adv-x="681"/>
<glyph unicode="Å" glyph-name="Aring" d="M331 700h29l311 -700h-34l-89 200h-407l-88 -200h-33zM155 230h380l-190 430zM255 762q0 19 7 35.5t19 28.5t28.5 19t35.5 7q38 0 64 -26t26 -64q0 -19 -7 -35.5t-19 -28.5t-28.5 -19t-35.5 -7q-38 0 -64 26t-26 64zM283 761q0 -25 18 -43t43 -18q26 0 45 18t19 43 q0 26 -19 45t-45 19q-25 0 -43 -19t-18 -45z" horiz-adv-x="681"/>
<glyph unicode="Æ" glyph-name="AE" d="M461 700h29v-700h-27l11 200h-323l-139 -200h-37zM172 230h289v417zM461 700h374v-30h-344v-296h294v-30h-294v-314h344v-30h-374v700z" horiz-adv-x="880"/>
<glyph unicode="Ç" glyph-name="Ccedilla" d="M699 473q-17 45 -45 82.5t-65.5 64.5t-83.5 41.5t-99 14.5q-69 0 -129 -25t-103.5 -68.5t-68.5 -103.5t-25 -129t25 -129t68.5 -103.5t103.5 -68.5t129 -25q52 0 98.5 14.5t84 41t65.5 63.5t45 82l31 -1q-17 -51 -47.5 -93.5t-72.5 -73t-93.5 -47t-110.5 -16.5 q-76 0 -141 27t-113 75t-75 113t-27 141t27 141t75 113t113 75t141 27q59 0 111 -17t94 -47.5t72.5 -73t47.5 -94.5zM424 17l-25 -66q38 -8 61.5 -30t23.5 -58t-26 -57.5t-62 -21.5q-32 0 -59 16t-37 29l16 24q3 -5 11 -11.5t19 -13t24 -11t26 -4.5q24 0 41 13t17 37 t-22 43.5t-70 23.5l31 87h31z" horiz-adv-x="771"/>
<glyph unicode="È" glyph-name="Egrave" d="M80 700h374v-30h-344v-296h294v-30h-294v-314h344v-30h-374v700zM303 752l-21 -15l-189 151v9l31 6z" horiz-adv-x="499"/>
<glyph unicode="É" glyph-name="Eacute" d="M80 700h374v-30h-344v-296h294v-30h-294v-314h344v-30h-374v700zM411 902l31 -6v-9l-189 -151l-21 15z" horiz-adv-x="499"/>
<glyph unicode="Ê" glyph-name="Ecircumflex" d="M80 700h374v-30h-344v-296h294v-30h-294v-314h344v-30h-374v700zM272 907l135 -157h-33l-111 124l-111 -124h-33l135 157h18z" horiz-adv-x="499"/>
<glyph unicode="Ë" glyph-name="Edieresis" d="M80 700h374v-30h-344v-296h294v-30h-294v-314h344v-30h-374v700zM128 824h36v-37h-36v37zM368 824h36v-37h-36v37z" horiz-adv-x="499"/>
<glyph unicode="Ì" glyph-name="Igrave" d="M90 700h30v-700h-30v700zM112 751l-21 -15l-189 151v9l31 6z" horiz-adv-x="200"/>
<glyph unicode="Í" glyph-name="Iacute" d="M90 700h30v-700h-30v700zM268 902l31 -6v-9l-189 -151l-21 15z" horiz-adv-x="200"/>
<glyph unicode="Î" glyph-name="Icircumflex" d="M90 700h30v-700h-30v700zM116 882l135 -157h-33l-111 124l-111 -124h-33l135 157h18z" horiz-adv-x="200"/>
<glyph unicode="Ï" glyph-name="Idieresis" d="M90 700h30v-700h-30v700zM-31 823h36v-37h-36v37zM209 823h36v-37h-36v37z" horiz-adv-x="200"/>
<glyph unicode="Ñ" glyph-name="Ntilde" d="M657 700v-700h-30l-517 649v-649h-30v700h30l517 -653v653h30zM303 827q-13 0 -24 -5.5t-19.5 -14.5t-15 -19.5t-10.5 -20.5l-20 15q3 9 10 21.5t17.5 24t26 19.5t35.5 8q22 0 40.5 -10t36 -22.5t33.5 -22.5t34 -10q13 0 24 5.5t19.5 14.5t14.5 19.5t11 20.5l20 -15 q-3 -9 -10 -21.5t-17.5 -24t-26 -19.5t-35.5 -8q-22 0 -40.5 10t-36 22.5t-33.5 22.5t-34 10z" horiz-adv-x="727"/>
<glyph unicode="Ò" glyph-name="Ograve" d="M50 350q0 76 27 141t75 113t113 75t141 27t141 -27t113 -75t75 -113t27 -141t-27 -141t-75 -113t-113 -75t-141 -27t-141 27t-113 75t-75 113t-27 141zM80 350q0 -69 25 -129t68.5 -103.5t103.5 -68.5t129 -25t129 25t103.5 68.5t68.5 103.5t25 129t-25 129t-68.5 103.5 t-103.5 68.5t-129 25t-129 -25t-103.5 -68.5t-68.5 -103.5t-25 -129zM424 751l-21 -15l-189 151v9l31 6z" horiz-adv-x="802"/>
<glyph unicode="Ó" glyph-name="Oacute" d="M50 350q0 76 27 141t75 113t113 75t141 27t141 -27t113 -75t75 -113t27 -141t-27 -141t-75 -113t-113 -75t-141 -27t-141 27t-113 75t-75 113t-27 141zM80 350q0 -69 25 -129t68.5 -103.5t103.5 -68.5t129 -25t129 25t103.5 68.5t68.5 103.5t25 129t-25 129t-68.5 103.5 t-103.5 68.5t-129 25t-129 -25t-103.5 -68.5t-68.5 -103.5t-25 -129zM563 902l31 -6v-9l-189 -151l-21 15z" horiz-adv-x="802"/>
<glyph unicode="Ô" glyph-name="Ocircumflex" d="M50 350q0 76 27 141t75 113t113 75t141 27t141 -27t113 -75t75 -113t27 -141t-27 -141t-75 -113t-113 -75t-141 -27t-141 27t-113 75t-75 113t-27 141zM80 350q0 -69 25 -129t68.5 -103.5t103.5 -68.5t129 -25t129 25t103.5 68.5t68.5 103.5t25 129t-25 129t-68.5 103.5 t-103.5 68.5t-129 25t-129 -25t-103.5 -68.5t-68.5 -103.5t-25 -129zM415 882l135 -157h-33l-111 124l-111 -124h-33l135 157h18z" horiz-adv-x="802"/>
<glyph unicode="Õ" glyph-name="Otilde" d="M50 350q0 76 27 141t75 113t113 75t141 27t141 -27t113 -75t75 -113t27 -141t-27 -141t-75 -113t-113 -75t-141 -27t-141 27t-113 75t-75 113t-27 141zM80 350q0 -69 25 -129t68.5 -103.5t103.5 -68.5t129 -25t129 25t103.5 68.5t68.5 103.5t25 129t-25 129t-68.5 103.5 t-103.5 68.5t-129 25t-129 -25t-103.5 -68.5t-68.5 -103.5t-25 -129zM335 825q-13 0 -24 -5.5t-19.5 -14.5t-15 -19.5t-10.5 -20.5l-20 15q3 9 10 21.5t17.5 24t26 19.5t35.5 8q22 0 40.5 -10t36 -22.5t33.5 -22.5t34 -10q13 0 24 5.5t19.5 14.5t14.5 19.5t11 20.5l20 -15 q-3 -9 -10 -21.5t-17.5 -24t-26 -19.5t-35.5 -8q-22 0 -40.5 10t-36 22.5t-33.5 22.5t-34 10z" horiz-adv-x="802"/>
<glyph unicode="Ö" glyph-name="Odieresis" d="M248 823h36v-37h-36v37zM528 823h36v-37h-36v37zM50 350q0 76 27 141t75 113t113 75t141 27t141 -27t113 -75t75 -113t27 -141t-27 -141t-75 -113t-113 -75t-141 -27t-141 27t-113 75t-75 113t-27 141zM80 350q0 -69 25 -129t68.5 -103.5t103.5 -68.5t129 -25t129 25 t103.5 68.5t68.5 103.5t25 129t-25 129t-68.5 103.5t-103.5 68.5t-129 25t-129 -25t-103.5 -68.5t-68.5 -103.5t-25 -129z" horiz-adv-x="802"/>
<glyph unicode="Ø" glyph-name="Oslash" d="M676 724l25 -18l-564 -731l-26 18zM50 350q0 76 27 141t75 113t113 75t141 27t141 -27t113 -75t75 -113t27 -141t-27 -141t-75 -113t-113 -75t-141 -27t-141 27t-113 75t-75 113t-27 141zM80 350q0 -69 25 -129t68.5 -103.5t103.5 -68.5t129 -25t129 25t103.5 68.5 t68.5 103.5t25 129t-25 129t-68.5 103.5t-103.5 68.5t-129 25t-129 -25t-103.5 -68.5t-68.5 -103.5t-25 -129z" horiz-adv-x="802"/>
<glyph unicode="Ù" glyph-name="Ugrave" d="M80 700h30v-428q0 -51 14 -96.5t41.5 -79t67 -53t90.5 -19.5t91 19.5t67 53t41.5 79t14.5 96.5v428h30v-428q0 -59 -16 -110t-46.5 -88.5t-76 -58.5t-105.5 -21q-59 0 -104.5 21t-76.5 58.5t-46.5 88.5t-15.5 110v428zM349 751l-21 -15l-189 151v9l31 6z" horiz-adv-x="637"/>
<glyph unicode="Ú" glyph-name="Uacute" d="M80 700h30v-428q0 -51 14 -96.5t41.5 -79t67 -53t90.5 -19.5t91 19.5t67 53t41.5 79t14.5 96.5v428h30v-428q0 -59 -16 -110t-46.5 -88.5t-76 -58.5t-105.5 -21q-59 0 -104.5 21t-76.5 58.5t-46.5 88.5t-15.5 110v428zM476 902l31 -6v-9l-189 -151l-21 15z" horiz-adv-x="637"/>
<glyph unicode="Û" glyph-name="Ucircumflex" d="M80 700h30v-428q0 -51 14 -96.5t41.5 -79t67 -53t90.5 -19.5t91 19.5t67 53t41.5 79t14.5 96.5v428h30v-428q0 -59 -16 -110t-46.5 -88.5t-76 -58.5t-105.5 -21q-59 0 -104.5 21t-76.5 58.5t-46.5 88.5t-15.5 110v428zM333 882l135 -157h-33l-111 124l-111 -124h-33 l135 157h18z" horiz-adv-x="637"/>
<glyph unicode="Ü" glyph-name="Udieresis" d="M165 823h36v-37h-36v37zM445 823h36v-37h-36v37zM80 700h30v-428q0 -51 14 -96.5t41.5 -79t67 -53t90.5 -19.5t91 19.5t67 53t41.5 79t14.5 96.5v428h30v-428q0 -59 -16 -110t-46.5 -88.5t-76 -58.5t-105.5 -21q-59 0 -104.5 21t-76.5 58.5t-46.5 88.5t-15.5 110v428z " horiz-adv-x="637"/>
<glyph unicode="Ý" glyph-name="Yacute" d="M316 309v-309h-30v310l-266 390h36l245 -358l245 358h36zM465 902l31 -6v-9l-189 -151l-21 15z" horiz-adv-x="592"/>
<glyph unicode="ß" glyph-name="germandbls" d="M100 520v-520h-30v520q0 41 12 75.5t35.5 59t57 38t76.5 13.5t74.5 -12.5t52.5 -32.5t31 -46.5t10 -54.5q0 -29 -8.5 -51t-22 -38.5t-31 -28.5t-34.5 -20q38 -8 71 -25t57 -43.5t37.5 -62t13.5 -78.5q0 -53 -19 -94t-51 -69t-75 -42t-92 -14v30q47 0 85 14t65 38.5 t42 59.5t15 77q0 48 -17 83.5t-45.5 58.5t-66 34.5t-78.5 11.5v30q17 5 38.5 13t40.5 22t32 36.5t13 57.5q0 59 -39 87.5t-99 28.5q-32 0 -60 -9t-48 -28.5t-31.5 -49t-11.5 -69.5z" horiz-adv-x="540"/>
<glyph unicode="à" glyph-name="agrave" d="M91 476q31 14 69 22t73 8q85 0 132 -44t47 -138v-324h-25l-5 55q-21 -23 -61.5 -42t-94.5 -19q-40 0 -73.5 11t-57.5 32t-37 50.5t-13 65.5t14 65.5t38.5 50.5t57.5 32t71 11q47 0 88.5 -12.5t67.5 -28.5v53q0 46 -12.5 76t-33 47t-47.5 23.5t-56 6.5q-35 0 -71.5 -8 t-70.5 -25v32zM226 282q-68 0 -108 -36t-40 -93q0 -58 38 -93.5t110 -35.5q59 0 96 20.5t60 49.5v143q-33 21 -69 33t-87 12zM278 601l-21 -15l-189 151v9l31 6z" horiz-adv-x="482"/>
<glyph unicode="á" glyph-name="aacute" d="M91 476q31 14 69 22t73 8q85 0 132 -44t47 -138v-324h-25l-5 55q-21 -23 -61.5 -42t-94.5 -19q-40 0 -73.5 11t-57.5 32t-37 50.5t-13 65.5t14 65.5t38.5 50.5t57.5 32t71 11q47 0 88.5 -12.5t67.5 -28.5v53q0 46 -12.5 76t-33 47t-47.5 23.5t-56 6.5q-35 0 -71.5 -8 t-70.5 -25v32zM226 282q-68 0 -108 -36t-40 -93q0 -58 38 -93.5t110 -35.5q59 0 96 20.5t60 49.5v143q-33 21 -69 33t-87 12zM389 751l31 -6v-9l-189 -151l-21 15z" horiz-adv-x="490"/>
<glyph unicode="â" glyph-name="acircumflex" d="M91 476q31 14 69 22t73 8q85 0 132 -44t47 -138v-324h-25l-5 55q-21 -23 -61.5 -42t-94.5 -19q-40 0 -73.5 11t-57.5 32t-37 50.5t-13 65.5t14 65.5t38.5 50.5t57.5 32t71 11q47 0 88.5 -12.5t67.5 -28.5v53q0 46 -12.5 76t-33 47t-47.5 23.5t-56 6.5q-35 0 -71.5 -8 t-70.5 -25v32zM226 282q-68 0 -108 -36t-40 -93q0 -58 38 -93.5t110 -35.5q59 0 96 20.5t60 49.5v143q-33 21 -69 33t-87 12zM240 713l135 -157h-33l-111 124l-111 -124h-33l135 157h18z" horiz-adv-x="482"/>
<glyph unicode="ã" glyph-name="atilde" d="M91 476q31 14 69 22t73 8q85 0 132 -44t47 -138v-324h-25l-5 55q-21 -23 -61.5 -42t-94.5 -19q-40 0 -73.5 11t-57.5 32t-37 50.5t-13 65.5t14 65.5t38.5 50.5t57.5 32t71 11q47 0 88.5 -12.5t67.5 -28.5v53q0 46 -12.5 76t-33 47t-47.5 23.5t-56 6.5q-35 0 -71.5 -8 t-70.5 -25v32zM226 282q-68 0 -108 -36t-40 -93q0 -58 38 -93.5t110 -35.5q59 0 96 20.5t60 49.5v143q-33 21 -69 33t-87 12zM167 654q-13 0 -24 -5.5t-19.5 -14.5t-15 -19.5t-10.5 -20.5l-20 15q3 9 10 21.5t17.5 24t26 19.5t35.5 8q22 0 40.5 -10t36 -22.5t33.5 -22.5 t34 -10q13 0 24 5.5t19.5 14.5t14.5 19.5t11 20.5l20 -15q-3 -9 -10 -21.5t-17.5 -24t-26 -19.5t-35.5 -8q-22 0 -40.5 10t-36 22.5t-33.5 22.5t-34 10z" horiz-adv-x="482"/>
<glyph unicode="ä" glyph-name="adieresis" d="M91 476q31 14 69 22t73 8q85 0 132 -44t47 -138v-324h-25l-5 55q-21 -23 -61.5 -42t-94.5 -19q-40 0 -73.5 11t-57.5 32t-37 50.5t-13 65.5t14 65.5t38.5 50.5t57.5 32t71 11q47 0 88.5 -12.5t67.5 -28.5v53q0 46 -12.5 76t-33 47t-47.5 23.5t-56 6.5q-35 0 -71.5 -8 t-70.5 -25v32zM226 282q-68 0 -108 -36t-40 -93q0 -58 38 -93.5t110 -35.5q59 0 96 20.5t60 49.5v143q-33 21 -69 33t-87 12zM98 651h36v-37h-36v37zM338 651h36v-37h-36v37z" horiz-adv-x="482"/>
<glyph unicode="å" glyph-name="aring" d="M91 476q31 14 69 22t73 8q85 0 132 -44t47 -138v-324h-25l-5 55q-21 -23 -61.5 -42t-94.5 -19q-40 0 -73.5 11t-57.5 32t-37 50.5t-13 65.5t14 65.5t38.5 50.5t57.5 32t71 11q47 0 88.5 -12.5t67.5 -28.5v53q0 46 -12.5 76t-33 47t-47.5 23.5t-56 6.5q-35 0 -71.5 -8 t-70.5 -25v32zM226 282q-68 0 -108 -36t-40 -93q0 -58 38 -93.5t110 -35.5q59 0 96 20.5t60 49.5v143q-33 21 -69 33t-87 12zM149 634q0 19 7 35.5t19 28.5t28.5 19t35.5 7q38 0 64 -26t26 -64q0 -19 -7 -35.5t-19 -28.5t-28.5 -19t-35.5 -7q-38 0 -64 26t-26 64zM177 633 q0 -25 18 -43t43 -18q26 0 45 18t19 43q0 26 -19 45t-45 19q-25 0 -43 -19t-18 -45z" horiz-adv-x="482"/>
<glyph unicode="æ" glyph-name="ae" d="M91 476q31 14 69 22t73 8q85 0 132 -44t47 -138v-192l15 -19q-47 -62 -97 -90.5t-104 -28.5q-40 0 -73.5 11t-57.5 32t-37 50.5t-13 65.5t14 65.5t38.5 50.5t57.5 32t71 11q47 0 88.5 -12.5t67.5 -28.5v53q0 46 -12.5 76t-33 47t-47.5 23.5t-56 6.5q-35 0 -71.5 -8 t-70.5 -25v32zM226 282q-68 0 -108 -36t-40 -93q0 -58 38 -93.5t110 -35.5q106 0 184 113q0 1 -1.5 0t-5.5 6.5t-9 28.5t-12 65q-33 21 -69 33t-87 12zM877 182q-9 -41 -29 -75.5t-50.5 -59.5t-70 -39t-86.5 -14q-59 0 -107 19.5t-82 53.5t-52 81t-18 102q0 51 18 97.5 t52 82t82 56t107 20.5q49 0 93.5 -16t77.5 -49t52.5 -82t18.5 -115h-471q1 -51 18 -91.5t47 -69t71.5 -44t92.5 -15.5q45 0 79.5 12t60 33t42 50t25.5 63h29zM641 476q-48 0 -88 -15.5t-70 -42.5t-48 -64t-22 -80h437q-2 46 -17 83.5t-42 63.5t-65 40.5t-85 14.5z" horiz-adv-x="919"/>
<glyph unicode="ç" glyph-name="ccedilla" d="M532 182q-9 -41 -29.5 -75.5t-51.5 -59.5t-71.5 -39t-88.5 -14q-54 0 -101 19.5t-81.5 54t-54 81.5t-19.5 101t19.5 101t54 81.5t81.5 54t101 19.5q47 0 87 -13t70.5 -37t51.5 -57t30 -73h-32q-18 68 -72 109t-135 41q-49 0 -90.5 -17.5t-71.5 -47.5t-47 -71.5t-17 -89.5 t17 -89.5t47 -71.5t71.5 -47.5t90.5 -17.5q85 0 139 44.5t71 113.5h31zM303 25l-25 -66q38 -8 61.5 -30t23.5 -58t-26 -57.5t-62 -21.5q-32 0 -59 16t-37 29l16 24q3 -5 11 -11.5t19 -13t24 -11t26 -4.5q24 0 41 13t17 37t-22 43.5t-70 23.5l31 87h31z" horiz-adv-x="567"/>
<glyph unicode="è" glyph-name="egrave" d="M530 182q-9 -41 -29 -75.5t-50.5 -59.5t-70 -39t-86.5 -14q-59 0 -107 19.5t-82 53.5t-52 81t-18 102q0 51 18 97.5t52 82t82 56t107 20.5q49 0 93.5 -16t77.5 -49t52.5 -82t18.5 -115h-471q1 -51 18 -91.5t47 -69t71.5 -44t92.5 -15.5q45 0 79.5 12t60 33t42 50t25.5 63 h29zM294 476q-48 0 -88 -15.5t-70 -42.5t-48 -64t-22 -80h437q-2 46 -17 83.5t-42 63.5t-65 40.5t-85 14.5zM314 601l-21 -15l-189 151v9l31 6z" horiz-adv-x="572"/>
<glyph unicode="é" glyph-name="eacute" d="M530 182q-9 -41 -29 -75.5t-50.5 -59.5t-70 -39t-86.5 -14q-59 0 -107 19.5t-82 53.5t-52 81t-18 102q0 51 18 97.5t52 82t82 56t107 20.5q49 0 93.5 -16t77.5 -49t52.5 -82t18.5 -115h-471q1 -51 18 -91.5t47 -69t71.5 -44t92.5 -15.5q45 0 79.5 12t60 33t42 50t25.5 63 h29zM294 476q-48 0 -88 -15.5t-70 -42.5t-48 -64t-22 -80h437q-2 46 -17 83.5t-42 63.5t-65 40.5t-85 14.5zM433 752l31 -6v-9l-189 -151l-21 15z" horiz-adv-x="572"/>
<glyph unicode="ê" glyph-name="ecircumflex" d="M530 182q-9 -41 -29 -75.5t-50.5 -59.5t-70 -39t-86.5 -14q-59 0 -107 19.5t-82 53.5t-52 81t-18 102q0 51 18 97.5t52 82t82 56t107 20.5q49 0 93.5 -16t77.5 -49t52.5 -82t18.5 -115h-471q1 -51 18 -91.5t47 -69t71.5 -44t92.5 -15.5q45 0 79.5 12t60 33t42 50t25.5 63 h29zM294 476q-48 0 -88 -15.5t-70 -42.5t-48 -64t-22 -80h437q-2 46 -17 83.5t-42 63.5t-65 40.5t-85 14.5zM298 712l135 -157h-33l-111 124l-111 -124h-33l135 157h18z" horiz-adv-x="572"/>
<glyph unicode="ë" glyph-name="edieresis" d="M530 182q-9 -41 -29 -75.5t-50.5 -59.5t-70 -39t-86.5 -14q-59 0 -107 19.5t-82 53.5t-52 81t-18 102q0 51 18 97.5t52 82t82 56t107 20.5q49 0 93.5 -16t77.5 -49t52.5 -82t18.5 -115h-471q1 -51 18 -91.5t47 -69t71.5 -44t92.5 -15.5q45 0 79.5 12t60 33t42 50t25.5 63 h29zM294 476q-48 0 -88 -15.5t-70 -42.5t-48 -64t-22 -80h437q-2 46 -17 83.5t-42 63.5t-65 40.5t-85 14.5zM150 651h36v-37h-36v37zM390 651h36v-37h-36v37z" horiz-adv-x="572"/>
<glyph unicode="ì" glyph-name="igrave" d="M88 500h30v-500h-30v500zM109 617l-21 -15l-189 151v9l31 6z" horiz-adv-x="206"/>
<glyph unicode="í" glyph-name="iacute" d="M88 500h30v-500h-30v500zM262 768l31 -6v-9l-189 -151l-21 15z" horiz-adv-x="206"/>
<glyph unicode="î" glyph-name="icircumflex" d="M88 500h30v-500h-30v500zM112 711l135 -157h-33l-111 124l-111 -124h-33l135 157h18z" horiz-adv-x="206"/>
<glyph unicode="ï" glyph-name="idieresis" d="M88 500h30v-500h-30v500zM-35 637h36v-37h-36v37zM205 637h36v-37h-36v37z" horiz-adv-x="206"/>
<glyph unicode="ð" glyph-name="eth" d="M433 668l12 -27l-269 -116l-12 27zM30 232q0 49 18.5 91t49 72.5t69 47.5t78.5 17q39 0 75.5 -12t68.5 -34t57.5 -54t41.5 -72q8 -16 12.5 -22.5t6.5 -9t2 -4v-6.5q0 -54 -19 -100.5t-52 -80.5t-76.5 -53t-92.5 -19t-92.5 19t-76 51.5t-51.5 76t-19 92.5zM61 228 q0 -43 16 -80t44 -64.5t65.5 -43.5t80.5 -16t81.5 16t67 45.5t45.5 70.5t17 91v11.5v3.5t-0.5 2t-2.5 6q-14 31 -36 59.5t-51 50.5t-63.5 35.5t-72.5 13.5q-41 0 -75.5 -16t-60.5 -43t-40.5 -63.5t-14.5 -78.5zM194 702q64 -31 121 -78t100 -106.5t68.5 -129.5t25.5 -145 l-31 2q0 12 2 17t4 8t2.5 7.5t-1.5 15.5q-5 24 -14.5 50.5t-17.5 46.5q-25 61 -58 108t-71.5 83t-82 62.5t-89.5 47.5z"/>
<glyph unicode="ñ" glyph-name="ntilde" d="M70 500h25l5 -87v-1q26 48 74 71t99 23q42 0 79 -11t64.5 -35.5t43.5 -63.5t16 -94v-302h-30v296q0 50 -13.5 84.5t-36.5 55.5t-54.5 30.5t-68.5 9.5q-29 0 -59.5 -9t-55 -29t-41 -51.5t-17.5 -75.5v-311h-30v500zM198 653q-13 0 -24 -5.5t-19.5 -14.5t-15 -19.5 t-10.5 -20.5l-20 15q3 9 10 21.5t17.5 24t26 19.5t35.5 8q22 0 40.5 -10t36 -22.5t33.5 -22.5t34 -10q13 0 24 5.5t19.5 14.5t14.5 19.5t11 20.5l20 -15q-3 -9 -10 -21.5t-17.5 -24t-26 -19.5t-35.5 -8q-22 0 -40.5 10t-36 22.5t-33.5 22.5t-34 10z" horiz-adv-x="546"/>
<glyph unicode="ò" glyph-name="ograve" d="M35 250q0 54 19.5 101t54 81.5t81.5 54t101 19.5t101 -19.5t81.5 -54t54 -81.5t19.5 -101t-19.5 -101t-54 -81.5t-81.5 -54t-101 -19.5t-101 19.5t-81.5 54t-54 81.5t-19.5 101zM65 250q0 -48 17.5 -89.5t47.5 -71.5t71.5 -47.5t89.5 -17.5t89.5 17.5t71.5 47.5 t47.5 71.5t17.5 89.5t-17.5 89.5t-47.5 71.5t-71.5 47.5t-89.5 17.5t-89.5 -17.5t-71.5 -47.5t-47.5 -71.5t-17.5 -89.5zM297 601l-21 -15l-189 151v9l31 6z" horiz-adv-x="582"/>
<glyph unicode="ó" glyph-name="oacute" d="M35 250q0 54 19.5 101t54 81.5t81.5 54t101 19.5t101 -19.5t81.5 -54t54 -81.5t19.5 -101t-19.5 -101t-54 -81.5t-81.5 -54t-101 -19.5t-101 19.5t-81.5 54t-54 81.5t-19.5 101zM65 250q0 -48 17.5 -89.5t47.5 -71.5t71.5 -47.5t89.5 -17.5t89.5 17.5t71.5 47.5 t47.5 71.5t17.5 89.5t-17.5 89.5t-47.5 71.5t-71.5 47.5t-89.5 17.5t-89.5 -17.5t-71.5 -47.5t-47.5 -71.5t-17.5 -89.5zM443 751l31 -6v-9l-189 -151l-21 15z" horiz-adv-x="582"/>
<glyph unicode="ô" glyph-name="ocircumflex" d="M35 250q0 54 19.5 101t54 81.5t81.5 54t101 19.5t101 -19.5t81.5 -54t54 -81.5t19.5 -101t-19.5 -101t-54 -81.5t-81.5 -54t-101 -19.5t-101 19.5t-81.5 54t-54 81.5t-19.5 101zM65 250q0 -48 17.5 -89.5t47.5 -71.5t71.5 -47.5t89.5 -17.5t89.5 17.5t71.5 47.5 t47.5 71.5t17.5 89.5t-17.5 89.5t-47.5 71.5t-71.5 47.5t-89.5 17.5t-89.5 -17.5t-71.5 -47.5t-47.5 -71.5t-17.5 -89.5zM302 711l135 -157h-33l-111 124l-111 -124h-33l135 157h18z" horiz-adv-x="582"/>
<glyph unicode="õ" glyph-name="otilde" d="M35 250q0 54 19.5 101t54 81.5t81.5 54t101 19.5t101 -19.5t81.5 -54t54 -81.5t19.5 -101t-19.5 -101t-54 -81.5t-81.5 -54t-101 -19.5t-101 19.5t-81.5 54t-54 81.5t-19.5 101zM65 250q0 -48 17.5 -89.5t47.5 -71.5t71.5 -47.5t89.5 -17.5t89.5 17.5t71.5 47.5 t47.5 71.5t17.5 89.5t-17.5 89.5t-47.5 71.5t-71.5 47.5t-89.5 17.5t-89.5 -17.5t-71.5 -47.5t-47.5 -71.5t-17.5 -89.5zM218 653q-13 0 -24 -5.5t-19.5 -14.5t-15 -19.5t-10.5 -20.5l-20 15q3 9 10 21.5t17.5 24t26 19.5t35.5 8q22 0 40.5 -10t36 -22.5t33.5 -22.5t34 -10 q13 0 24 5.5t19.5 14.5t14.5 19.5t11 20.5l20 -15q-3 -9 -10 -21.5t-17.5 -24t-26 -19.5t-35.5 -8q-22 0 -40.5 10t-36 22.5t-33.5 22.5t-34 10z" horiz-adv-x="582"/>
<glyph unicode="ö" glyph-name="odieresis" d="M35 250q0 54 19.5 101t54 81.5t81.5 54t101 19.5t101 -19.5t81.5 -54t54 -81.5t19.5 -101t-19.5 -101t-54 -81.5t-81.5 -54t-101 -19.5t-101 19.5t-81.5 54t-54 81.5t-19.5 101zM65 250q0 -48 17.5 -89.5t47.5 -71.5t71.5 -47.5t89.5 -17.5t89.5 17.5t71.5 47.5 t47.5 71.5t17.5 89.5t-17.5 89.5t-47.5 71.5t-71.5 47.5t-89.5 17.5t-89.5 -17.5t-71.5 -47.5t-47.5 -71.5t-17.5 -89.5zM156 651h36v-37h-36v37zM396 651h36v-37h-36v37z" horiz-adv-x="582"/>
<glyph unicode="ø" glyph-name="oslash" d="M487 523l24 -18l-410 -531l-25 18zM35 250q0 54 19.5 101t54 81.5t81.5 54t101 19.5t101 -19.5t81.5 -54t54 -81.5t19.5 -101t-19.5 -101t-54 -81.5t-81.5 -54t-101 -19.5t-101 19.5t-81.5 54t-54 81.5t-19.5 101zM65 250q0 -48 17.5 -89.5t47.5 -71.5t71.5 -47.5 t89.5 -17.5t89.5 17.5t71.5 47.5t47.5 71.5t17.5 89.5t-17.5 89.5t-47.5 71.5t-71.5 47.5t-89.5 17.5t-89.5 -17.5t-71.5 -47.5t-47.5 -71.5t-17.5 -89.5z" horiz-adv-x="582"/>
<glyph unicode="ù" glyph-name="ugrave" d="M477 203q0 -95 -51.5 -152t-152.5 -57t-152 57t-50 152v297h30v-285q0 -100 45.5 -145.5t126.5 -45.5t126.5 43t47.5 138v295h30v-297zM283 600l-21 -15l-189 151v9l31 6z" horiz-adv-x="547"/>
<glyph unicode="ú" glyph-name="uacute" d="M477 203q0 -95 -51.5 -152t-152.5 -57t-152 57t-50 152v297h30v-285q0 -100 45.5 -145.5t126.5 -45.5t126.5 43t47.5 138v295h30v-297zM423 751l31 -6v-9l-189 -151l-21 15z" horiz-adv-x="547"/>
<glyph unicode="û" glyph-name="ucircumflex" d="M477 203q0 -95 -51.5 -152t-152.5 -57t-152 57t-50 152v297h30v-285q0 -100 45.5 -145.5t126.5 -45.5t126.5 43t47.5 138v295h30v-297zM282 712l135 -157h-33l-111 124l-111 -124h-33l135 157h18z" horiz-adv-x="547"/>
<glyph unicode="ü" glyph-name="udieresis" d="M477 203q0 -95 -51.5 -152t-152.5 -57t-152 57t-50 152v297h30v-285q0 -100 45.5 -145.5t126.5 -45.5t126.5 43t47.5 138v295h30v-297zM135 651h36v-37h-36v37zM375 651h36v-37h-36v37z" horiz-adv-x="547"/>
<glyph unicode="ý" glyph-name="yacute" d="M48 500l200 -474l219 474h32l-346 -750h-33l111 241l-216 509h33zM398 752l31 -6v-9l-189 -151l-21 15z" horiz-adv-x="514"/>
<glyph unicode="þ" glyph-name="thorn" d="M70 316h30v-566h-30v566zM70 700h30v-327q29 61 86.5 97t138.5 36q54 0 99.5 -19.5t78.5 -54t51.5 -81.5t18.5 -101t-18.5 -101t-51.5 -81.5t-78.5 -54t-99.5 -19.5q-81 0 -138.5 35.5t-86.5 96.5v-18l-5 -108h-25v700zM325 24q47 0 87 17t69 47t45.5 71.5t16.5 90.5 t-16 90.5t-45 71.5t-69 47t-88 17t-89 -16t-71 -45.5t-47.5 -71t-17.5 -93.5t17.5 -94t47.5 -71t71 -45t89 -16z" horiz-adv-x="608"/>
<glyph unicode="ÿ" glyph-name="ydieresis" d="M48 500l200 -474l219 474h32l-346 -750h-33l111 241l-216 509h33zM119 651h36v-37h-36v37zM359 651h36v-37h-36v37z" horiz-adv-x="514"/>
<glyph unicode="Č" glyph-name="Ccaron" d="M699 473q-17 45 -45 82.5t-65.5 64.5t-83.5 41.5t-99 14.5q-69 0 -129 -25t-103.5 -68.5t-68.5 -103.5t-25 -129t25 -129t68.5 -103.5t103.5 -68.5t129 -25q52 0 98.5 14.5t84 41t65.5 63.5t45 82l31 -1q-17 -51 -47.5 -93.5t-72.5 -73t-93.5 -47t-110.5 -16.5 q-76 0 -141 27t-113 75t-75 113t-27 141t27 141t75 113t113 75t141 27q59 0 111 -17t94 -47.5t72.5 -73t47.5 -94.5zM393 729l-135 157h33l111 -124l111 124h33l-135 -157h-18z" horiz-adv-x="771"/>
<glyph unicode="č" glyph-name="ccaron" d="M532 182q-9 -41 -29.5 -75.5t-51.5 -59.5t-71.5 -39t-88.5 -14q-54 0 -101 19.5t-81.5 54t-54 81.5t-19.5 101t19.5 101t54 81.5t81.5 54t101 19.5q47 0 87 -13t70.5 -37t51.5 -57t30 -73h-32q-18 68 -72 109t-135 41q-49 0 -90.5 -17.5t-71.5 -47.5t-47 -71.5t-17 -89.5 t17 -89.5t47 -71.5t71.5 -47.5t90.5 -17.5q85 0 139 44.5t71 113.5h31zM283 557l-135 157h33l111 -124l111 124h33l-135 -157h-18z" horiz-adv-x="567"/>
<glyph unicode="Œ" glyph-name="OE" d="M50 351q0 76 27 141t75 113t113 75t141 27t118 -17.5t62 -32.5q10 -49 9 -144.5t8 -161.5q-11 -96 -4.5 -177.5t-5.5 -122.5q-24 -20 -67.5 -38t-119.5 -18t-141 27t-113 75t-75 113t-27 141zM80 351q0 -69 25 -129t68.5 -103.5t103.5 -68.5t129 -25t112.5 18t72.5 46 q-5 39 -6 94.5t0 169.5q-2 90 0 157.5t-2 109.5q-25 22 -66.5 39.5t-110.5 17.5t-129 -25t-103.5 -68.5t-68.5 -103.5t-25 -129zM577 700h374v-30h-344v-296h294v-30h-294v-314h344v-30h-374v700z" horiz-adv-x="996"/>
<glyph unicode="œ" glyph-name="oe" d="M35 250q0 54 19.5 101t54 81.5t81.5 54t101 19.5t101 -19.5t81.5 -54t54 -81.5t19.5 -101t-19.5 -101t-54 -81.5t-81.5 -54t-101 -19.5t-101 19.5t-81.5 54t-54 81.5t-19.5 101zM65 250q0 -48 17.5 -89.5t47.5 -71.5t71.5 -47.5t89.5 -17.5t89.5 17.5t71.5 47.5 t47.5 71.5t17.5 89.5t-17.5 89.5t-47.5 71.5t-71.5 47.5t-89.5 17.5t-89.5 -17.5t-71.5 -47.5t-47.5 -71.5t-17.5 -89.5zM1012 182q-9 -41 -29 -75.5t-50.5 -59.5t-70 -39t-86.5 -14q-59 0 -107 19.5t-82 53.5t-52 81t-18 102q0 51 18 97.5t52 82t82 56t107 20.5 q49 0 93.5 -16t77.5 -49t52.5 -82t18.5 -115h-471q1 -51 18 -91.5t47 -69t71.5 -44t92.5 -15.5q45 0 79.5 12t60 33t42 50t25.5 63h29zM776 476q-48 0 -88 -15.5t-70 -42.5t-48 -64t-22 -80h437q-2 46 -17 83.5t-42 63.5t-65 40.5t-85 14.5z" horiz-adv-x="1054"/>
<glyph unicode="Š" glyph-name="Scaron" d="M306 366q55 -16 92.5 -35t60.5 -43t33.5 -53t10.5 -63q0 -38 -13 -70.5t-38.5 -56.5t-63.5 -37.5t-88 -13.5q-60 0 -104 19t-73.5 52t-43.5 77t-14 94h30q0 -59 17.5 -99t46 -65.5t65.5 -36.5t76 -11q50 0 83 14t53 36t28.5 48t8.5 50q0 28 -8.5 52t-29 44.5t-54.5 37.5 t-85 32q-47 13 -85 30t-65 40.5t-42 54.5t-15 72q0 31 12 62t36 55t59 39t82 15q106 0 157 -58.5t51 -157.5h-30q0 99 -46.5 142.5t-131.5 43.5q-36 0 -65.5 -11t-50 -30t-32 -44.5t-11.5 -55.5t9.5 -54t31 -44.5t57.5 -38t89 -32.5zM280 729l-135 157h33l111 -124l111 124 h33l-135 -157h-18z" horiz-adv-x="558"/>
<glyph unicode="š" glyph-name="scaron" d="M217 267q71 -24 106 -57.5t35 -87.5q0 -58 -38 -93t-104 -35q-43 0 -75 12.5t-53.5 34t-32 51.5t-10.5 66h30q2 -61 35 -97.5t106 -36.5q32 0 53.5 9t34.5 23t18.5 31.5t5.5 34.5q0 42 -30.5 69.5t-90.5 47.5q-66 21 -106 54t-40 91q0 53 37.5 87.5t105.5 34.5 q37 0 63.5 -12.5t43 -32.5t24 -46t7.5 -54h-30q0 54 -26 84.5t-84 30.5q-48 0 -79.5 -23.5t-31.5 -68.5q0 -43 30 -68.5t96 -48.5zM194 557l-135 157h33l111 -124l111 124h33l-135 -157h-18z" horiz-adv-x="408"/>
<glyph unicode="Ÿ" glyph-name="Ydieresis" d="M316 309v-309h-30v310l-266 390h36l245 -358l245 358h36zM162 823h36v-37h-36v37zM402 823h36v-37h-36v37z" horiz-adv-x="592"/>
<glyph unicode="Ž" glyph-name="Zcaron" d="M80 700h414v-30l-398 -640h398v-30h-434v30l398 640h-378v30zM269 729l-135 157h33l111 -124l111 124h33l-135 -157h-18z" horiz-adv-x="544"/>
<glyph unicode="ž" glyph-name="zcaron" d="M45 500h341v-30l-296 -440h306v-30h-341v30l295 440h-305v30zM208 556l-135 157h33l111 -124l111 124h33l-135 -157h-18z" horiz-adv-x="441"/>
<glyph unicode="ˆ" glyph-name="circumflex" d="M168 714l135 -157h-33l-111 124l-111 -124h-33l135 157h18z" horiz-adv-x="318"/>
<glyph unicode="ˇ" glyph-name="caron" d="M150 581l-135 157h33l111 -124l111 124h33l-135 -157h-18z" horiz-adv-x="318"/>
<glyph unicode="˚" glyph-name="ring" d="M0 668q0 19 7 35.5t19 28.5t28.5 19t35.5 7q38 0 64 -26t26 -64q0 -19 -7 -35.5t-19 -28.5t-28.5 -19t-35.5 -7q-38 0 -64 26t-26 64zM28 667q0 -25 18 -43t43 -18q26 0 45 18t19 43q0 26 -19 45t-45 19q-25 0 -43 -19t-18 -45z" horiz-adv-x="180"/>
<glyph unicode="˜" glyph-name="tilde" d="M105 656q-13 0 -24 -5.5t-19.5 -14.5t-15 -19.5t-10.5 -20.5l-20 15q3 9 10 21.5t17.5 24t26 19.5t35.5 8q22 0 40.5 -10t36 -22.5t33.5 -22.5t34 -10q13 0 24 5.5t19.5 14.5t14.5 19.5t11 20.5l20 -15q-3 -9 -10 -21.5t-17.5 -24t-26 -19.5t-35.5 -8q-22 0 -40.5 10 t-36 22.5t-33.5 22.5t-34 10z" horiz-adv-x="346"/>
<glyph unicode="Ё" glyph-name="afii10023" d="M121 824h36v-37h-36v37zM361 824h36v-37h-36v37zM80 700h374v-30h-344v-296h294v-30h-294v-314h344v-30h-374v700z" horiz-adv-x="499"/>
<glyph unicode="А" glyph-name="afii10017" d="M331 700h29l311 -700h-34l-89 200h-407l-88 -200h-33zM155 230h380l-190 430z" horiz-adv-x="681"/>
<glyph unicode="Б" glyph-name="afii10018" d="M80 700h344v-30h-314v-272h126q53 0 97.5 -12.5t76.5 -37t50 -62t18 -87.5t-18 -87.5t-50 -62t-76.5 -37t-97.5 -12.5h-156v700zM110 368v-339l126 1q48 0 87 10t66.5 31t43 53t15.5 75q0 86 -58 127.5t-154 41.5h-126z" horiz-adv-x="513"/>
<glyph unicode="В" glyph-name="afii10019" d="M80 0v700h130q112 0 172 -39t60 -127q0 -108 -105 -146q37 -8 68.5 -24t54 -40t35.5 -55.5t13 -69.5q0 -52 -17.5 -89.5t-49 -62t-76 -36t-99.5 -11.5h-186zM266 30q104 0 158 44t54 125q0 36 -15 66.5t-42.5 53.5t-66.5 36t-88 13h-156v-338h156zM110 670v-272h100 q108 0 155 36t47 100q0 69 -48 102.5t-154 33.5h-100z" horiz-adv-x="553"/>
<glyph unicode="Г" glyph-name="afii10020" d="M80 700h374v-30h-344v-670h-30v700z" horiz-adv-x="464"/>
<glyph unicode="Д" glyph-name="afii10021" d="M25 30h35q33 17 54 42t32 65t15 97.5t4 138.5v327h407v-670h70v-179h-30v149h-557v-149h-30v179zM195 373q0 -59 -1 -111.5t-8.5 -97t-24 -78.5t-47.5 -56h428v640h-347v-297z" horiz-adv-x="692"/>
<glyph unicode="Е" glyph-name="afii10022" d="M80 700h374v-30h-344v-296h294v-30h-294v-314h344v-30h-374v700z" horiz-adv-x="499"/>
<glyph unicode="Ж" glyph-name="afii10024" d="M392 700h30v-700h-30v700zM63 700h38l281 -343l-316 -357h-41l318 357zM471 357l318 -357h-41l-316 357l281 343h38z" horiz-adv-x="804"/>
<glyph unicode="З" glyph-name="afii10025" d="M192 398h52q67 0 110 37t43 106q0 60 -41.5 97t-109.5 37q-57 0 -99 -31t-52 -93h-30q5 36 21 64.5t40.5 48.5t55 30.5t65.5 10.5q39 0 72 -12.5t57 -34t37.5 -51.5t13.5 -66q0 -53 -25.5 -95.5t-79.5 -61.5q28 -8 53.5 -24t44 -39.5t29.5 -54.5t11 -70q0 -45 -15.5 -82 t-43.5 -63.5t-68 -41.5t-88 -15q-39 0 -74 13t-62.5 35.5t-47 54t-26.5 68.5h32q7 -32 24 -58t40.5 -44.5t52.5 -28.5t61 -10q44 0 78.5 13.5t58 36.5t36 54.5t12.5 67.5q0 40 -14 72t-39 54t-59 34t-74 12h-52v30z" horiz-adv-x="510"/>
<glyph unicode="И" glyph-name="afii10026" d="M110 700v-652l507 652h30v-700h-30v649l-507 -649h-30v700h30z" horiz-adv-x="717"/>
<glyph unicode="Й" glyph-name="afii10027" d="M110 700v-652l507 652h30v-700h-30v649l-507 -649h-30v700h30zM511 876q0 -58 -39 -93.5t-108 -35.5t-108 35.5t-39 93.5h30q0 -43 29.5 -71t87.5 -28q63 0 90 29t27 70h30z" horiz-adv-x="717"/>
<glyph unicode="К" glyph-name="afii10028" d="M80 700h30v-700h-30v700zM159 357l343 -357h-42l-341 357l306 343h39z" horiz-adv-x="517"/>
<glyph unicode="Л" glyph-name="afii10029" d="M547 670h-377v-307q0 -70 -1.5 -133.5t-13.5 -113.5t-39.5 -82.5t-80.5 -39.5v31q37 9 58 32.5t31.5 64.5t13 100.5t2.5 140.5v337h437v-700h-30v670z" horiz-adv-x="647"/>
<glyph unicode="М" glyph-name="afii10030" d="M750 0h-30v648l-290 -410h-30l-290 409v-647h-30v700h30l305 -431l305 431h30v-700z" horiz-adv-x="820"/>
<glyph unicode="Н" glyph-name="afii10031" d="M647 344h-537v-344h-30v700h30v-326h537v326h30v-700h-30v344z" horiz-adv-x="747"/>
<glyph unicode="О" glyph-name="afii10032" d="M50 350q0 76 27 141t75 113t113 75t141 27t141 -27t113 -75t75 -113t27 -141t-27 -141t-75 -113t-113 -75t-141 -27t-141 27t-113 75t-75 113t-27 141zM80 350q0 -69 25 -129t68.5 -103.5t103.5 -68.5t129 -25t129 25t103.5 68.5t68.5 103.5t25 129t-25 129t-68.5 103.5 t-103.5 68.5t-129 25t-129 -25t-103.5 -68.5t-68.5 -103.5t-25 -129z" horiz-adv-x="802"/>
<glyph unicode="П" glyph-name="afii10033" d="M587 670h-477v-670h-30v700h537v-700h-30v670z" horiz-adv-x="687"/>
<glyph unicode="Р" glyph-name="afii10034" d="M80 700h156q53 0 97.5 -12.5t76.5 -37t50 -62t18 -87.5t-18 -87.5t-50 -62t-76.5 -37t-97.5 -12.5h-126v-302h-30v700zM110 671v-339h126q96 0 154 41.5t58 127.5q0 43 -15.5 75t-43 53t-66.5 31t-87 10z" horiz-adv-x="508"/>
<glyph unicode="С" glyph-name="afii10035" d="M699 473q-17 45 -45 82.5t-65.5 64.5t-83.5 41.5t-99 14.5q-69 0 -129 -25t-103.5 -68.5t-68.5 -103.5t-25 -129t25 -129t68.5 -103.5t103.5 -68.5t129 -25q52 0 98.5 14.5t84 41t65.5 63.5t45 82l31 -1q-17 -51 -47.5 -93.5t-72.5 -73t-93.5 -47t-110.5 -16.5 q-76 0 -141 27t-113 75t-75 113t-27 141t27 141t75 113t113 75t141 27q59 0 111 -17t94 -47.5t72.5 -73t47.5 -94.5z" horiz-adv-x="771"/>
<glyph unicode="Т" glyph-name="afii10036" d="M15 700h488v-30h-229v-670h-30v670h-229v30z" horiz-adv-x="508"/>
<glyph unicode="У" glyph-name="afii10037" d="M242 0h-34l77 160l-260 540h34l243 -506l245 506h34z" horiz-adv-x="596"/>
<glyph unicode="Ф" glyph-name="afii10038" d="M381 44q-73 2 -133.5 23.5t-104.5 61t-68.5 95.5t-24.5 126t24.5 126t68.5 95t104.5 61t133.5 24v44h30v-44q73 -2 133.5 -24t104.5 -61t68.5 -95t24.5 -126t-24.5 -126t-68.5 -95.5t-104.5 -61t-133.5 -23.5v-44h-30v44zM712 350q0 63 -22.5 113.5t-62.5 85.5t-95 55 t-121 22v-552q66 2 121 21.5t95 55t62.5 86t22.5 113.5zM80 350q0 -63 22.5 -113.5t62.5 -86t95 -55t121 -21.5v552q-66 -2 -121 -22t-95 -55t-62.5 -85.5t-22.5 -113.5z" horiz-adv-x="782"/>
<glyph unicode="Х" glyph-name="afii10039" d="M295 384l212 316h35l-227 -341l247 -359h-37l-230 335l-231 -335h-37l247 359l-227 341h35z" horiz-adv-x="575"/>
<glyph unicode="Ц" glyph-name="afii10040" d="M80 700h30v-670h477v670h30v-670h70v-179h-30v149h-577v700z" horiz-adv-x="737"/>
<glyph unicode="Ч" glyph-name="afii10041" d="M402 347q-33 -26 -77 -38t-89 -12q-38 0 -71.5 9t-59 30t-40.5 56.5t-15 88.5v219h30v-219q0 -47 12.5 -76.5t33.5 -47t49.5 -24t60.5 -6.5q47 0 90.5 13.5t75.5 43.5v316h30v-700h-30v347z" horiz-adv-x="502"/>
<glyph unicode="Ш" glyph-name="afii10042" d="M80 700h30v-670h292v670h30v-670h293v670h30v-700h-675v700z" horiz-adv-x="825"/>
<glyph unicode="Щ" glyph-name="afii10043" d="M80 700h30v-670h292v670h30v-670h293v670h30v-670h70v-179h-30v149h-715v700z" horiz-adv-x="875"/>
<glyph unicode="Ъ" glyph-name="afii10044" d="M-20 700h200v-302h126q53 0 97.5 -12.5t76.5 -37t50 -62t18 -87.5t-18 -87.5t-50 -62t-76.5 -37t-97.5 -12.5h-156v670h-170v30zM180 368v-339l126 1q48 0 87 10t66.5 31t43 53t15.5 75q0 86 -58 127.5t-154 41.5h-126z" horiz-adv-x="578"/>
<glyph unicode="Ы" glyph-name="afii10045" d="M80 700h30v-302h126q53 0 97.5 -12.5t76.5 -37t50 -62t18 -87.5t-18 -87.5t-50 -62t-76.5 -37t-97.5 -12.5h-156v700zM110 368v-339l126 1q48 0 87 10t66.5 31t43 53t15.5 75q0 86 -58 127.5t-154 41.5h-126zM570 700h30v-700h-30v700z" horiz-adv-x="670"/>
<glyph unicode="Ь" glyph-name="afii10046" d="M80 700h30v-302h126q53 0 97.5 -12.5t76.5 -37t50 -62t18 -87.5t-18 -87.5t-50 -62t-76.5 -37t-97.5 -12.5h-156v700zM110 368v-339l126 1q48 0 87 10t66.5 31t43 53t15.5 75q0 86 -58 127.5t-154 41.5h-126z" horiz-adv-x="508"/>
<glyph unicode="Э" glyph-name="afii10047" d="M300 370h400q-3 66 -29.5 122t-70 97t-101 64t-124.5 23q-53 0 -99 -14.5t-83.5 -41.5t-65.5 -64.5t-45 -82.5l-32 1q16 52 47 94.5t73 73t94 47.5t111 17q76 0 141 -27t113 -75t75 -113t27 -141t-27 -141t-75 -113t-113 -75t-141 -27q-59 0 -110.5 16.5t-93.5 47t-73 73 t-47 93.5l31 1q17 -45 45 -82t65.5 -63.5t83.5 -41t99 -14.5q68 0 126.5 24t102 66.5t69 100t27.5 125.5h-400v30z" horiz-adv-x="771"/>
<glyph unicode="Ю" glyph-name="afii10048" d="M80 700h30v-328h105q4 72 33 133t76 105.5t110.5 70t136.5 25.5q76 0 141 -27t113 -75t75 -113t27 -141t-27 -141t-75 -113t-113 -75t-141 -27q-75 0 -139.5 26.5t-112 73t-75.5 110.5t-29 138h-105v-342h-30v700zM245 350q0 -69 25 -129t68.5 -103.5t103.5 -68.5 t129 -25t129 25t103.5 68.5t68.5 103.5t25 129t-25 129t-68.5 103.5t-103.5 68.5t-129 25t-129 -25t-103.5 -68.5t-68.5 -103.5t-25 -129z" horiz-adv-x="967"/>
<glyph unicode="Я" glyph-name="afii10049" d="M35 0l203 312q-69 18 -110 64.5t-41 124.5q0 50 18 87.5t50 62t76.5 37t97.5 12.5h156v-700h-30v302h-126q-16 0 -31 1t-29 3l-199 -306h-35zM329 670q-48 0 -87 -10t-66.5 -31t-43 -53t-15.5 -75q0 -86 58 -127.5t154 -41.5h126v339z" horiz-adv-x="555"/>
<glyph unicode="а" glyph-name="afii10065" d="M91 476q31 14 69 22t73 8q85 0 132 -44t47 -138v-324h-25l-5 55q-21 -23 -61.5 -42t-94.5 -19q-40 0 -73.5 11t-57.5 32t-37 50.5t-13 65.5t14 65.5t38.5 50.5t57.5 32t71 11q47 0 88.5 -12.5t67.5 -28.5v53q0 46 -12.5 76t-33 47t-47.5 23.5t-56 6.5q-35 0 -71.5 -8 t-70.5 -25v32zM226 282q-68 0 -108 -36t-40 -93q0 -58 38 -93.5t110 -35.5q59 0 96 20.5t60 49.5v143q-33 21 -69 33t-87 12z" horiz-adv-x="482"/>
<glyph unicode="б" glyph-name="afii10066" d="M45 257v43q0 73 5.5 140t29 119.5t70 87.5t129.5 44l214 24v-31l-219 -24q-64 -7 -103 -36t-60 -70t-28 -90.5t-8 -97.5q29 63 89 101.5t137 38.5q54 0 101 -19.5t81.5 -54t54 -81.5t19.5 -101t-19.5 -101t-54 -81.5t-81.5 -54t-101 -19.5t-101 19.5t-81.5 54t-54 81.5 t-19.5 101v7zM75 250q0 -48 17.5 -89.5t47.5 -71.5t71.5 -47.5t89.5 -17.5t89.5 17.5t71.5 47.5t47.5 71.5t17.5 89.5t-17.5 89.5t-47.5 71.5t-71.5 47.5t-89.5 17.5t-89.5 -17.5t-71.5 -47.5t-47.5 -71.5t-17.5 -89.5z" horiz-adv-x="592"/>
<glyph unicode="в" glyph-name="afii10067" d="M79 0v500h152q37 0 69 -8t55 -24t36 -39.5t13 -54.5q0 -42 -20.5 -67.5t-56.5 -39.5q56 -12 86.5 -46t30.5 -82q0 -62 -43.5 -100.5t-129.5 -38.5h-192zM271 30q72 0 107.5 29t35.5 80q0 48 -34.5 78.5t-108.5 30.5h-162v-218h162zM109 470v-192h122q65 0 104 22.5 t39 73.5q0 45 -38.5 70.5t-104.5 25.5h-122z" horiz-adv-x="479"/>
<glyph unicode="г" glyph-name="afii10068" d="M70 500h288v-30h-258v-470h-30v500z" horiz-adv-x="368"/>
<glyph unicode="д" glyph-name="afii10069" d="M25 30h24q19 24 32 50t20.5 59.5t11 77.5t3.5 105v178h321v-470h50v-130h-30v100h-402v-100h-30v130zM146 322q0 -44 -2 -86t-8.5 -79.5t-18.5 -69.5t-33 -57h323v440h-261v-148z" horiz-adv-x="527"/>
<glyph unicode="е" glyph-name="afii10070" d="M530 182q-9 -41 -29 -75.5t-50.5 -59.5t-70 -39t-86.5 -14q-59 0 -107 19.5t-82 53.5t-52 81t-18 102q0 51 18 97.5t52 82t82 56t107 20.5q49 0 93.5 -16t77.5 -49t52.5 -82t18.5 -115h-471q1 -51 18 -91.5t47 -69t71.5 -44t92.5 -15.5q45 0 79.5 12t60 33t42 50t25.5 63 h29zM294 476q-48 0 -88 -15.5t-70 -42.5t-48 -64t-22 -80h437q-2 46 -17 83.5t-42 63.5t-65 40.5t-85 14.5z" horiz-adv-x="572"/>
<glyph unicode="ж" glyph-name="afii10072" d="M308 500h31v-500h-31v500zM619 500l-228 -242l246 -258h-42l-246 257l228 243h42zM70 500l228 -243l-246 -257h-42l246 258l-228 242h42z" horiz-adv-x="647"/>
<glyph unicode="з" glyph-name="afii10073" d="M60 168q0 -71 37.5 -107.5t106.5 -36.5q60 0 91 31.5t31 80.5q0 53 -32.5 84.5t-104.5 31.5h-51v30h52q51 0 82 23.5t31 73.5q0 42 -27.5 69.5t-84.5 27.5q-28 0 -48.5 -8.5t-33.5 -23t-19 -33t-6 -37.5h-30q0 24 8 47.5t24.5 42.5t42.5 30.5t62 11.5q41 0 68.5 -12 t44 -31t23 -41t6.5 -43q0 -42 -20 -71t-55 -40q48 -11 73 -45.5t25 -86.5q0 -66 -42 -104t-110 -38q-51 0 -85 16t-53.5 41.5t-27.5 56t-8 60.5h30z" horiz-adv-x="391"/>
<glyph unicode="и" glyph-name="afii10074" d="M70 0v500h30v-452l355 452h30v-500h-30v451l-355 -451h-30z" horiz-adv-x="555"/>
<glyph unicode="й" glyph-name="afii10075" d="M100 0l355 451v-451h30v500h-30l-355 -452v452h-30v-500h30zM431 690q0 -58 -39 -93.5t-108 -35.5t-108 35.5t-39 93.5h30q0 -43 29.5 -71t87.5 -28q63 0 90 29t27 70h30z" horiz-adv-x="555"/>
<glyph unicode="к" glyph-name="afii10076" d="M70 500h31v-500h-31v500zM402 500l-248 -242l266 -258h-43l-266 257l248 243h43z" horiz-adv-x="425"/>
<glyph unicode="л" glyph-name="afii10077" d="M417 470h-276v-194q0 -69 -3.5 -121.5t-15.5 -88t-35 -54t-62 -18.5v30q28 0 45 14t26 44t12 78t3 116v224h336v-500h-30v470z" horiz-adv-x="517"/>
<glyph unicode="м" glyph-name="afii10078" d="M548 447l-213 -317h-22l-213 317v-447h-30v500h30l223 -334l225 334h30v-500h-30v447z" horiz-adv-x="648"/>
<glyph unicode="н" glyph-name="afii10079" d="M457 241h-357v-241h-30v500h30v-229h357v229h29v-500h-29v241z" horiz-adv-x="556"/>
<glyph unicode="о" glyph-name="afii10080" d="M35 250q0 54 19.5 101t54 81.5t81.5 54t101 19.5t101 -19.5t81.5 -54t54 -81.5t19.5 -101t-19.5 -101t-54 -81.5t-81.5 -54t-101 -19.5t-101 19.5t-81.5 54t-54 81.5t-19.5 101zM65 250q0 -48 17.5 -89.5t47.5 -71.5t71.5 -47.5t89.5 -17.5t89.5 17.5t71.5 47.5 t47.5 71.5t17.5 89.5t-17.5 89.5t-47.5 71.5t-71.5 47.5t-89.5 17.5t-89.5 -17.5t-71.5 -47.5t-47.5 -71.5t-17.5 -89.5z" horiz-adv-x="582"/>
<glyph unicode="п" glyph-name="afii10081" d="M457 470h-357v-470h-30v500h416v-500h-29v470z" horiz-adv-x="556"/>
<glyph unicode="р" glyph-name="afii10082" d="M70 500h25l5 -80v-47q29 61 86.5 97t138.5 36q54 0 99.5 -19.5t78.5 -54t51.5 -81.5t18.5 -101t-18.5 -101t-51.5 -81.5t-78.5 -54t-99.5 -19.5q-81 0 -138.5 35.5t-86.5 96.5v-376h-30v750zM100 250q0 -50 17 -91.5t47 -71.5t71 -46.5t90 -16.5q47 0 87 17t69 47 t45.5 71.5t16.5 90.5t-16 90.5t-45 71.5t-69 47t-88 17q-49 0 -90 -16.5t-71 -46.5t-47 -71.5t-17 -91.5z" horiz-adv-x="608"/>
<glyph unicode="с" glyph-name="afii10083" d="M532 182q-9 -41 -29.5 -75.5t-51.5 -59.5t-71.5 -39t-88.5 -14q-54 0 -101 19.5t-81.5 54t-54 81.5t-19.5 101t19.5 101t54 81.5t81.5 54t101 19.5q47 0 87 -13t70.5 -37t51.5 -57t30 -73h-32q-18 68 -72 109t-135 41q-49 0 -90.5 -17.5t-71.5 -47.5t-47 -71.5t-17 -89.5 t17 -89.5t47 -71.5t71.5 -47.5t90.5 -17.5q85 0 139 44.5t71 113.5h31z" horiz-adv-x="567"/>
<glyph unicode="т" glyph-name="afii10084" d="M10 500h396v-30h-183v-470h-30v470h-183v30z" horiz-adv-x="416"/>
<glyph unicode="у" glyph-name="afii10085" d="M48 500l200 -474l219 474h32l-346 -750h-33l111 241l-216 509h33z" horiz-adv-x="514"/>
<glyph unicode="ф" glyph-name="afii10086" d="M311 -6q-58 0 -108.5 17t-87.5 49.5t-58.5 80t-21.5 109.5t21.5 109.5t58.5 80t87.5 49.5t108.5 17v194h30v-194q58 0 108.5 -17t87.5 -49.5t58.5 -80t21.5 -109.5t-21.5 -109.5t-58.5 -80t-87.5 -49.5t-108.5 -17v-244h-30v244zM587 250q0 55 -19 97.5t-52 71t-78 43 t-97 14.5v-452q52 0 97 14.5t78 43t52 70.5t19 98zM65 250q0 -56 19 -98t52 -70.5t78 -43t97 -14.5v452q-52 0 -97 -14.5t-78 -43t-52 -71t-19 -97.5z" horiz-adv-x="652"/>
<glyph unicode="х" glyph-name="afii10087" d="M417 500l-166 -236l186 -264h-37l-169 242l-169 -242h-37l186 264l-166 236h37l149 -215l149 215h37z" horiz-adv-x="462"/>
<glyph unicode="ц" glyph-name="afii10088" d="M70 500h30v-470h356v470h30v-470h50v-130h-30v100h-436v500z" horiz-adv-x="576"/>
<glyph unicode="ч" glyph-name="afii10089" d="M321 236q-22 -17 -52.5 -27t-72.5 -10q-78 0 -119.5 40.5t-41.5 120.5v140h30v-140q0 -38 10.5 -63t28.5 -40t42 -21.5t50 -6.5q43 0 73.5 12t51.5 31v228h30v-500h-30v236z" horiz-adv-x="421"/>
<glyph unicode="ш" glyph-name="afii10090" d="M70 500h30v-470h233v470h30v-470h233v470h30v-500h-556v500z" horiz-adv-x="696"/>
<glyph unicode="щ" glyph-name="afii10091" d="M70 500h30v-470h233v470h30v-470h233v470h30v-470h50v-130h-30v100h-576v500z" horiz-adv-x="716"/>
<glyph unicode="ъ" glyph-name="afii10092" d="M-10 500h180v-190h172q75 0 119 -41t44 -114t-42.5 -114t-120.5 -41h-202v470h-150v30zM342 30q37 0 62 10t41 27t23 39.5t7 48.5q0 24 -7 46.5t-23 40t-41 28t-62 10.5h-172v-250h172z" horiz-adv-x="535"/>
<glyph unicode="ы" glyph-name="afii10093" d="M70 500h30v-190h172q75 0 119 -41t44 -114t-42.5 -114t-120.5 -41h-202v500zM272 30q37 0 62 10t41 27t23 39.5t7 48.5q0 24 -7 46.5t-23 40t-41 28t-62 10.5h-172v-250h172zM510 500h30v-500h-30v500z" horiz-adv-x="610"/>
<glyph unicode="ь" glyph-name="afii10094" d="M70 500h30v-190h172q75 0 119 -41t44 -114t-42.5 -114t-120.5 -41h-202v500zM272 30q37 0 62 10t41 27t23 39.5t7 48.5q0 24 -7 46.5t-23 40t-41 28t-62 10.5h-172v-250h172z" horiz-adv-x="465"/>
<glyph unicode="э" glyph-name="afii10095" d="M222 271h279q-4 44 -22 81.5t-48 65t-69.5 43t-85.5 15.5q-81 0 -135 -41t-72 -109h-32q9 40 30 73t51.5 57t70.5 37t87 13q54 0 101 -19.5t81.5 -54t54 -81.5t19.5 -101t-19.5 -101t-54 -81.5t-81.5 -54t-101 -19.5q-48 0 -88.5 14t-71.5 39t-51.5 59.5t-29.5 75.5h31 q17 -69 71 -113.5t139 -44.5q48 0 88.5 16.5t70.5 45.5t47.5 68.5t19.5 86.5h-280v30z" horiz-adv-x="567"/>
<glyph unicode="ю" glyph-name="afii10096" d="M70 500h30v-229h96q4 50 25 93t54.5 74.5t78.5 49.5t97 18q54 0 101 -19.5t81.5 -54t54 -81.5t19.5 -101t-19.5 -101t-54 -81.5t-81.5 -54t-101 -19.5q-53 0 -99 19t-80.5 52t-55 78t-21.5 98h-95v-241h-30v500zM225 250q0 -48 17.5 -89.5t47.5 -71.5t71.5 -47.5 t89.5 -17.5t89.5 17.5t71.5 47.5t47.5 71.5t17.5 89.5t-17.5 89.5t-47.5 71.5t-71.5 47.5t-89.5 17.5t-89.5 -17.5t-71.5 -47.5t-47.5 -71.5t-17.5 -89.5z" horiz-adv-x="742"/>
<glyph unicode="я" glyph-name="afii10097" d="M417 500v-500h-30v204h-171l-142 -204h-39l148 206q-56 8 -93.5 45t-37.5 101q0 36 12 64t34 46.5t52 28t65 9.5h202zM82 352q0 -48 33.5 -83t99.5 -35h172v236h-172q-66 0 -99.5 -33.5t-33.5 -84.5z" horiz-adv-x="487"/>
<glyph unicode="ё" glyph-name="afii10071" d="M138 637h36v-37h-36v37zM398 637h36v-37h-36v37zM530 182q-9 -41 -29 -75.5t-50.5 -59.5t-70 -39t-86.5 -14q-59 0 -107 19.5t-82 53.5t-52 81t-18 102q0 51 18 97.5t52 82t82 56t107 20.5q49 0 93.5 -16t77.5 -49t52.5 -82t18.5 -115h-471q1 -51 18 -91.5t47 -69 t71.5 -44t92.5 -15.5q45 0 79.5 12t60 33t42 50t25.5 63h29zM294 476q-48 0 -88 -15.5t-70 -42.5t-48 -64t-22 -80h437q-2 46 -17 83.5t-42 63.5t-65 40.5t-85 14.5z" horiz-adv-x="572"/>
<glyph unicode="–" glyph-name="endash" d="M30 310h411v-30h-411v30z" horiz-adv-x="471"/>
<glyph unicode="—" glyph-name="emdash" d="M15 300h571v-30h-571v30z" horiz-adv-x="601"/>
<glyph unicode="‘" glyph-name="quoteleft" d="M82 607h-52v54l32 101h20v-155z" horiz-adv-x="112"/>
<glyph unicode="’" glyph-name="quoteright" d="M30 700h52v-54l-32 -101h-20v155z" horiz-adv-x="112"/>
<glyph unicode="“" glyph-name="quotedblleft" d="M202 607h-52v54l32 101h20v-155zM82 607h-52v54l32 101h20v-155z" horiz-adv-x="232"/>
<glyph unicode="”" glyph-name="quotedblright" d="M30 700h52v-54l-32 -101h-20v155zM150 700h52v-54l-32 -101h-20v155z" horiz-adv-x="232"/>
<glyph unicode="„" glyph-name="quotedblbase" d="M30 54h52v-54l-32 -101h-20v155zM150 54h52v-54l-32 -101h-20v155z" horiz-adv-x="232"/>
<glyph unicode="•" glyph-name="bullet" d="M80 365q0 20 14 33.5t34 13.5t33.5 -13.5t13.5 -33.5t-13.5 -34t-33.5 -14t-34 14t-14 34z" horiz-adv-x="255"/>
<glyph unicode="…" glyph-name="ellipsis" d="M30 54h52v-54h-52v54zM250 54h52v-54h-52v54zM470 54h52v-54h-52v54z" horiz-adv-x="537"/>
<glyph unicode="€" glyph-name="Euro" d="M745 473q-17 45 -45 82.5t-65.5 64.5t-83.5 41.5t-99 14.5q-58 0 -109 -17.5t-92.5 -49t-70.5 -75t-43 -95.5h367v-30h-373q-3 -14 -4 -29t-1 -30q0 -14 1 -27.5t3 -27.5h374v-30h-368q13 -53 42.5 -97.5t70.5 -76.5t92.5 -49.5t110.5 -17.5q52 0 98.5 14.5t84 41 t65.5 63.5t45 82l31 -1q-17 -51 -47.5 -93.5t-72.5 -73t-93.5 -47t-110.5 -16.5q-65 0 -122 20t-102.5 56t-77 85.5t-45.5 109.5h-75v30h70q-2 14 -3 27.5t-1 27.5q0 15 1 30t3 29h-70v30h76q14 58 46 107.5t77 84.5t102 55t121 20q59 0 111 -17t94 -47.5t72.5 -73 t47.5 -94.5z" horiz-adv-x="817"/>
<glyph unicode="№" glyph-name="afii61352" d="M1073 523q0 -41 -14 -74.5t-39 -57.5t-58 -37t-71 -13t-71 13t-58 37t-39 57.5t-14 74.5t14 74.5t39 57.5t58 37t71 13t71 -13t58 -37t39 -57.5t14 -74.5zM1043 523q0 34 -12 62t-32.5 48t-48.5 31t-59 11q-32 0 -59.5 -11t-48 -31t-32.5 -48t-12 -62t12 -62t32.5 -48 t48 -31t59.5 -11q31 0 59 11t48.5 31t32.5 48t12 62zM657 700v-700h-30l-517 649v-649h-30v700h30l517 -653v653h30zM734 296h314v-30h-314v30z" horiz-adv-x="1113"/>
<glyph unicode="™" glyph-name="trademark" d="M763 643l-154 -235h-30l-154 235v-337h-30v394h30l169 -261l169 261h30v-394h-30v337zM30 700h308v-30h-138v-364h-30v364h-140v30z" horiz-adv-x="823"/>
<glyph unicode="ﬀ" glyph-name="ff" d="M30 500h72v97q0 59 26.5 84t72.5 25q15 0 31.5 -3.5t32 -9t29 -11t22.5 -9.5q18 33 60 33q21 0 40.5 -5t38.5 -13v-31q-20 8 -39.5 13.5t-39.5 5.5q-19 0 -31.5 -15.5t-12.5 -63.5v-97h123v-30h-123v-470h-30v470h-170v-470h-30v470h-72v30zM302 500v97q0 30 4 49 q-25 11 -53.5 20.5t-51.5 9.5q-15 0 -27.5 -3t-21.5 -11.5t-14.5 -24t-5.5 -40.5v-97h170z" horiz-adv-x="475"/>
<glyph glyph-name="Acronis" d="M1394 452q13 18 29.5 29.5t32.5 18.5t30.5 9.5t25.5 2.5q4 0 7.5 -0.5t5.5 -0.5q3 -1 5 -1v-92l-3 1q-2 0 -6 0.5t-9 0.5q-51 0 -84.5 -26.5t-33.5 -77.5v-316h-95v500h84l5 -48h6zM2402 512q35 0 69.5 -10t61.5 -32t43.5 -58t16.5 -88v-324h-94v319q0 52 -32 77.5 t-82 25.5q-29 0 -55 -7t-45 -20.5t-30 -33.5t-11 -46v-315h-94v500h85l5 -48h4q9 9 23 19.5t33.5 19.5t44.5 15t57 6zM2714 500h94v-500h-94v500zM1804 507q54 0 100 -19.5t80 -53.5t53 -80.5t19 -100.5t-19 -99.5t-53 -79.5t-80 -53t-100 -19t-99.5 19t-79.5 53t-53 79.5 t-19 99.5t19 100.5t53 80.5t79.5 53.5t99.5 19.5zM1804 92q35 0 63.5 12t49 33.5t31.5 51t11 64.5q0 36 -11 66t-31.5 52t-49 34.5t-63.5 12.5t-63 -12.5t-47.5 -34.5t-30.5 -52t-11 -66q0 -35 11 -64.5t30.5 -51t47.5 -33.5t63 -12zM3111 304q36 -9 68 -20t55.5 -28 t37.5 -42.5t14 -63.5q0 -33 -15 -61.5t-40.5 -49.5t-59.5 -33t-73 -12q-41 0 -76.5 12t-61 35t-39 56.5t-11.5 76.5h91q0 -27 8.5 -45.5t23 -29.5t32.5 -16t37 -5q40 0 64 20.5t24 49.5q0 9 -3 17t-13.5 16.5t-31 17.5t-54.5 18q-32 8 -61 18t-51 26t-35 40.5t-13 61.5 q0 30 13 55.5t35.5 45t53 30.5t65.5 11q78 0 124 -43.5t44 -120.5h-92q0 24 -6.5 39.5t-17.5 25t-24.5 13.5t-27.5 4q-34 0 -53.5 -18.5t-19.5 -37.5q0 -8 2.5 -15.5t11.5 -16t26.5 -16.5t48.5 -15zM417 691l311 -691h-99l-61 140h-388l-61 -140h-99l311 691h86zM367 561 l-88 -203h190l-88 203l-4 13h-5zM533 217l-28 65h-262l-28 -65h318zM1208 177q-23 -79 -82.5 -127t-147.5 -48q-53 0 -98.5 19t-79 53t-52.5 79.5t-19 99.5t19 100.5t52.5 80.5t79 53.5t98.5 19.5q87 0 148.5 -47t81.5 -128v-7h-99q-15 44 -48 68.5t-83 24.5q-70 0 -110 -46 t-40 -119q0 -35 10.5 -65t30 -52t47 -34t62.5 -12q50 0 83.5 25.5t47.5 67.5h99v-6z" horiz-adv-x="3336"/>
</font>
</defs>
</svg>
