<svg version="1.0" xmlns="http://www.w3.org/2000/svg" width="21.333" height="21.333" viewBox="0 0 16 16">
  <path d="M8.016 3.376c-.096.192-.176.336-1.168 2-.344.584-.856 1.44-1.128 1.904-.272.464-.784 1.32-1.128 1.904-.344.584-.696 1.176-.784 1.32-.08.144-.376.64-.656 1.104-.72 1.2-.72 1.112-.008 1.112h.6l.2-.344c.112-.184.296-.52.424-.736.12-.224.368-.656.552-.96l.328-.56 1.456-.024 1.456-.016v2.64h5.264v-1.04h-4.12v-1.64l.008-1.64h3.712l-.016-.504L13 7.4l-1.848-.04-1.84-.04V5.776L9.304 4.24h4.056V3.2H8.104l-.088.176zm.12 5.64c-.024.016-.536.016-1.152.008L5.872 9l.856-1.44c.584-.968.944-1.688 1.128-2.2l.264-.76.024 2.192C8.152 8 8.152 9 8.136 9.016z"/>
</svg>
